<?xml version="1.0" encoding="UTF-8" standalone="no"?><svg xmlns="http://www.w3.org/2000/svg" xmlns:xlink="http://www.w3.org/1999/xlink" contentScriptType="application/ecmascript" contentStyleType="text/css" height="209px" preserveAspectRatio="none" style="width:627px;height:209px;background:#FFFFFF;" version="1.1" viewBox="0 0 627 209" width="627px" zoomAndPan="magnify"><defs><filter height="300%" id="f19zs6m0m4tc0a" width="300%" x="-1" y="-1"><feGaussianBlur result="blurOut" stdDeviation="2.0"/><feColorMatrix in="blurOut" result="blurOut2" type="matrix" values="0 0 0 0 0 0 0 0 0 0 0 0 0 0 0 0 0 0 .4 0"/><feOffset dx="4.0" dy="4.0" in="blurOut2" result="blurOut3"/><feBlend in="SourceGraphic" in2="blurOut3" mode="normal"/></filter></defs><g><!--MD5=[1d7ba1c7002d54515419844fbd155368]
class Controller--><rect codeLine="3" fill="#FEFECE" filter="url(#f19zs6m0m4tc0a)" height="75.6719" id="Controller" style="stroke:#A80036;stroke-width:1.5;" width="180" x="107" y="105.5"/><ellipse cx="165.75" cy="121.5" fill="#ADD1B2" rx="11" ry="11" style="stroke:#A80036;stroke-width:1.0;"/><path d="M167.75,118 Q167.9531,117.5 168.1875,117.25 Q168.4219,117 168.6875,117 Q169.1563,117 169.4531,117.2813 Q169.75,117.5625 169.75,118.2188 L169.75,119.7813 Q169.75,120.4375 169.4688,120.7188 Q169.1875,121 168.75,121 Q168.3594,121 168.1094,120.8281 Q167.8594,120.6563 167.75,120.2031 Q167.7031,119.8906 167.5313,119.7188 Q167.2188,119.3906 166.6563,119.2031 Q166.0938,119 165.5313,119 Q164.8281,119 164.2344,119.2813 Q163.6563,119.5625 163.2031,120.1875 Q162.75,120.8125 162.75,121.6719 L162.75,122.5938 Q162.75,123.625 163.5938,124.3125 Q164.4375,125 165.9375,125 Q166.8281,125 167.4531,124.7969 Q167.8125,124.6875 168.2188,124.3281 Q168.4844,124.125 168.625,124.0625 Q168.7656,124 168.9375,124 Q169.2656,124 169.5,124.2656 Q169.75,124.5156 169.75,124.875 Q169.75,125.2188 169.4063,125.625 Q168.9063,126.2188 168.1094,126.5469 Q167.0625,127 165.7813,127 Q164.2813,127 163.0781,126.4063 Q162.1094,125.9375 161.4219,124.9219 Q160.75,123.9063 160.75,122.7031 L160.75,121.6094 Q160.75,120.3594 161.3438,119.2656 Q161.9531,118.1719 163,117.5938 Q164.0625,117 165.25,117 Q165.9688,117 166.5938,117.25 Q167.2188,117.5 167.75,118 Z " fill="#000000"/><text fill="#000000" font-family="sans-serif" font-size="12" lengthAdjust="spacing" textLength="54" x="186.25" y="126.4102">Controller</text><line style="stroke:#A80036;stroke-width:1.5;" x1="108" x2="286" y1="137.5" y2="137.5"/><line style="stroke:#A80036;stroke-width:1.5;" x1="108" x2="286" y1="145.5" y2="145.5"/><ellipse cx="118" cy="156.5" fill="#84BE84" rx="3" ry="3" style="stroke:#038048;stroke-width:1.0;"/><text fill="#000000" font-family="sans-serif" font-size="11" lengthAdjust="spacing" textLength="154" x="127" y="160.9189">Controller(FactoryState factory)</text><ellipse cx="118" cy="170.3359" fill="#84BE84" rx="3" ry="3" style="stroke:#038048;stroke-width:1.0;"/><text fill="#000000" font-family="sans-serif" font-size="11" lengthAdjust="spacing" textLength="24" x="127" y="174.7549">run()</text><!--MD5=[7d9c3bce528ceb4fb22f2730fa955025]
class FactoryState--><rect codeLine="7" fill="#FEFECE" filter="url(#f19zs6m0m4tc0a)" height="103.3438" id="FactoryState" style="stroke:#A80036;stroke-width:1.5;" width="142" x="322" y="92"/><ellipse cx="356.35" cy="108" fill="#ADD1B2" rx="11" ry="11" style="stroke:#A80036;stroke-width:1.0;"/><path d="M358.35,104.5 Q358.5531,104 358.7875,103.75 Q359.0219,103.5 359.2875,103.5 Q359.7563,103.5 360.0531,103.7813 Q360.35,104.0625 360.35,104.7188 L360.35,106.2813 Q360.35,106.9375 360.0688,107.2188 Q359.7875,107.5 359.35,107.5 Q358.9594,107.5 358.7094,107.3281 Q358.4594,107.1563 358.35,106.7031 Q358.3031,106.3906 358.1313,106.2188 Q357.8188,105.8906 357.2563,105.7031 Q356.6938,105.5 356.1313,105.5 Q355.4281,105.5 354.8344,105.7813 Q354.2563,106.0625 353.8031,106.6875 Q353.35,107.3125 353.35,108.1719 L353.35,109.0938 Q353.35,110.125 354.1938,110.8125 Q355.0375,111.5 356.5375,111.5 Q357.4281,111.5 358.0531,111.2969 Q358.4125,111.1875 358.8188,110.8281 Q359.0844,110.625 359.225,110.5625 Q359.3656,110.5 359.5375,110.5 Q359.8656,110.5 360.1,110.7656 Q360.35,111.0156 360.35,111.375 Q360.35,111.7188 360.0063,112.125 Q359.5063,112.7188 358.7094,113.0469 Q357.6625,113.5 356.3813,113.5 Q354.8813,113.5 353.6781,112.9063 Q352.7094,112.4375 352.0219,111.4219 Q351.35,110.4063 351.35,109.2031 L351.35,108.1094 Q351.35,106.8594 351.9438,105.7656 Q352.5531,104.6719 353.6,104.0938 Q354.6625,103.5 355.85,103.5 Q356.5688,103.5 357.1938,103.75 Q357.8188,104 358.35,104.5 Z " fill="#000000"/><text fill="#000000" font-family="sans-serif" font-size="12" lengthAdjust="spacing" textLength="67" x="374.65" y="112.9102">FactoryState</text><line style="stroke:#A80036;stroke-width:1.5;" x1="323" x2="463" y1="124" y2="124"/><line style="stroke:#A80036;stroke-width:1.5;" x1="323" x2="463" y1="132" y2="132"/><ellipse cx="333" cy="143" fill="#84BE84" rx="3" ry="3" style="stroke:#038048;stroke-width:1.0;"/><text fill="#000000" font-family="sans-serif" font-size="11" lengthAdjust="spacing" textLength="77" x="342" y="147.4189">genMenuState()</text><ellipse cx="333" cy="156.8359" fill="#84BE84" rx="3" ry="3" style="stroke:#038048;stroke-width:1.0;"/><text fill="#000000" font-family="sans-serif" font-size="11" lengthAdjust="spacing" textLength="116" x="342" y="161.2549">genSettingsMenuState()</text><ellipse cx="333" cy="170.6719" fill="#84BE84" rx="3" ry="3" style="stroke:#038048;stroke-width:1.0;"/><text fill="#000000" font-family="sans-serif" font-size="11" lengthAdjust="spacing" textLength="115" x="342" y="175.0908">genRankingMenuState()</text><ellipse cx="333" cy="184.5078" fill="#84BE84" rx="3" ry="3" style="stroke:#038048;stroke-width:1.0;"/><text fill="#000000" font-family="sans-serif" font-size="11" lengthAdjust="spacing" textLength="103" x="342" y="188.9268">genGameOverState()</text><!--MD5=[7e51a97469e63bc1c86a229e7a434dbc]
class ControllerState--><rect codeLine="14" fill="#FEFECE" filter="url(#f19zs6m0m4tc0a)" height="61.8359" id="ControllerState" style="stroke:#A80036;stroke-width:1.5;" width="114" x="499" y="112.5"/><ellipse cx="514" cy="128.5" fill="#A9DCDF" rx="11" ry="11" style="stroke:#A80036;stroke-width:1.0;"/><path d="M515.75,130 L512.4531,130 L512.0156,131 L512.0156,131 L512.4844,131 L513,131.625 L513,132 L513,132.375 L512.4844,133 L512.0156,133 L510.125,133 L509.5156,133 L509,132.375 L509,132 L509,131.625 L509.5156,131 L510.125,131 L512.4375,125 L511.5625,125 L510.5156,125 L510,124.375 L510,124 L510,123.625 L510.5156,123 L511.5625,123 L515.2344,123 L517.9219,131 L518.4844,131 L518.4844,131 L519,131.625 L519,132 L519,132.375 L518.4844,133 L517.9219,133 L516.0313,133 L515.5156,133 L515,132.375 L515,132 L515,131.625 L515.5156,131 L516.0313,131 L516.0313,131 L515.75,130 Z M515.2031,128 L514,124.4219 L512.9688,128 L515.2031,128 Z " fill="#000000"/><text fill="#000000" font-family="sans-serif" font-size="12" font-style="italic" lengthAdjust="spacing" textLength="82" x="528" y="133.4102">ControllerState</text><line style="stroke:#A80036;stroke-width:1.5;" x1="500" x2="612" y1="144.5" y2="144.5"/><line style="stroke:#A80036;stroke-width:1.5;" x1="500" x2="612" y1="152.5" y2="152.5"/><ellipse cx="510" cy="163.5" fill="#84BE84" rx="3" ry="3" style="stroke:#038048;stroke-width:1.0;"/><text fill="#000000" font-family="sans-serif" font-size="11" font-style="italic" lengthAdjust="spacing" textLength="24" x="519" y="167.9189">run()</text><path d="M6,130.5 L6,156.8516 A0,0 0 0 0 6,156.8516 L72,156.8516 A0,0 0 0 0 72,156.8516 L72,148.5 L106.68,143.5 L72,140.5 L72,140.5 L62,130.5 L6,130.5 A0,0 0 0 0 6,130.5 " fill="#FBFB77" filter="url(#f19zs6m0m4tc0a)" style="stroke:#A80036;stroke-width:1.0;"/><path d="M62,130.5 L62,140.5 L72,140.5 L62,130.5 " fill="#FBFB77" style="stroke:#A80036;stroke-width:1.0;"/><text fill="#000000" font-family="sans-serif" font-size="13" lengthAdjust="spacing" textLength="45" x="12" y="148.9951">Context</text><path d="M334,6 L334,32.3516 A0,0 0 0 0 334,32.3516 L389,32.3516 L393,91.93 L397,32.3516 L452,32.3516 A0,0 0 0 0 452,32.3516 L452,16 L442,6 L334,6 A0,0 0 0 0 334,6 " fill="#FBFB77" filter="url(#f19zs6m0m4tc0a)" style="stroke:#A80036;stroke-width:1.0;"/><path d="M442,6 L442,16 L452,16 L442,6 " fill="#FBFB77" style="stroke:#A80036;stroke-width:1.0;"/><text fill="#000000" font-family="sans-serif" font-size="13" lengthAdjust="spacing" textLength="97" x="340" y="24.4951">Abstract Factory</text><!--MD5=[544778ecb8494622d751526967071f57]
link FactoryState to ControllerState--><path codeLine="18" d="M464.31,143.5 C474.07,143.5 483.83,143.5 493.59,143.5 " fill="none" id="FactoryState-to-ControllerState" style="stroke:#A80036;stroke-width:1.0;stroke-dasharray:7.0,7.0;"/><polygon fill="#A80036" points="498.7,143.5,489.7,139.5,493.7,143.5,489.7,147.5,498.7,143.5" style="stroke:#A80036;stroke-width:1.0;"/><!--MD5=[c55c61e06808187db4287bd909ea9a08]
link Controller to FactoryState--><path codeLine="19" d="M287.34,143.5 C297.07,143.5 306.79,143.5 316.51,143.5 " fill="none" id="Controller-to-FactoryState" style="stroke:#A80036;stroke-width:1.0;"/><polygon fill="#A80036" points="321.6,143.5,312.6,139.5,316.6,143.5,312.6,147.5,321.6,143.5" style="stroke:#A80036;stroke-width:1.0;"/><text fill="#000000" font-family="sans-serif" font-size="13" lengthAdjust="spacing" textLength="7" x="306.8759" y="140.1705">1</text><!--MD5=[aab558b3c53be5b63701d5565d95cca7]
@startuml
'https://plantuml.com/class-diagram

class Controller{
+Controller(FactoryState factory)
+run()
}
class FactoryState{
+genMenuState()
+genSettingsMenuState()
+genRankingMenuState()
+genGameOverState()
}

abstract class ControllerState{
+{abstract}run()
}

FactoryState .r.> ControllerState
Controller -r-> "1" FactoryState



note left of Controller: Context
note top of FactoryState: Abstract Factory
@enduml

@startuml

class Controller{
+Controller(FactoryState factory)
+run()
}
class FactoryState{
+genMenuState()
+genSettingsMenuState()
+genRankingMenuState()
+genGameOverState()
}

abstract class ControllerState{
+{abstract}run()
}

FactoryState .r.> ControllerState
Controller -r-> "1" FactoryState



note left of Controller: Context
note top of FactoryState: Abstract Factory
@enduml

PlantUML version 1.2021.16(Wed Dec 08 17:25:22 GMT 2021)
(GPL source distribution)
Java Runtime: OpenJDK Runtime Environment
JVM: OpenJDK 64-Bit Server VM
Default Encoding: Cp1252
Language: pt
Country: PT
--></g></svg>