<?xml version="1.0" encoding="UTF-8" standalone="no"?><svg xmlns="http://www.w3.org/2000/svg" xmlns:xlink="http://www.w3.org/1999/xlink" contentScriptType="application/ecmascript" contentStyleType="text/css" height="223px" preserveAspectRatio="none" style="width:615px;height:223px;background:#FFFFFF;" version="1.1" viewBox="0 0 615 223" width="615px" zoomAndPan="magnify"><defs><filter height="300%" id="fvzii3gx5gpms" width="300%" x="-1" y="-1"><feGaussianBlur result="blurOut" stdDeviation="2.0"/><feColorMatrix in="blurOut" result="blurOut2" type="matrix" values="0 0 0 0 0 0 0 0 0 0 0 0 0 0 0 0 0 0 .4 0"/><feOffset dx="4.0" dy="4.0" in="blurOut2" result="blurOut3"/><feBlend in="SourceGraphic" in2="blurOut3" mode="normal"/></filter></defs><g><!--MD5=[1d7ba1c7002d54515419844fbd155368]
class Controller--><rect codeLine="3" fill="#FEFECE" filter="url(#fvzii3gx5gpms)" height="75.6719" id="Controller" style="stroke:#A80036;stroke-width:1.5;" width="180" x="107" y="112.5"/><ellipse cx="165.75" cy="128.5" fill="#ADD1B2" rx="11" ry="11" style="stroke:#A80036;stroke-width:1.0;"/><path d="M167.75,125 Q167.9531,124.5 168.1875,124.25 Q168.4219,124 168.6875,124 Q169.1563,124 169.4531,124.2813 Q169.75,124.5625 169.75,125.2188 L169.75,126.7813 Q169.75,127.4375 169.4688,127.7188 Q169.1875,128 168.75,128 Q168.3594,128 168.1094,127.8281 Q167.8594,127.6563 167.75,127.2031 Q167.7031,126.8906 167.5313,126.7188 Q167.2188,126.3906 166.6563,126.2031 Q166.0938,126 165.5313,126 Q164.8281,126 164.2344,126.2813 Q163.6563,126.5625 163.2031,127.1875 Q162.75,127.8125 162.75,128.6719 L162.75,129.5938 Q162.75,130.625 163.5938,131.3125 Q164.4375,132 165.9375,132 Q166.8281,132 167.4531,131.7969 Q167.8125,131.6875 168.2188,131.3281 Q168.4844,131.125 168.625,131.0625 Q168.7656,131 168.9375,131 Q169.2656,131 169.5,131.2656 Q169.75,131.5156 169.75,131.875 Q169.75,132.2188 169.4063,132.625 Q168.9063,133.2188 168.1094,133.5469 Q167.0625,134 165.7813,134 Q164.2813,134 163.0781,133.4063 Q162.1094,132.9375 161.4219,131.9219 Q160.75,130.9063 160.75,129.7031 L160.75,128.6094 Q160.75,127.3594 161.3438,126.2656 Q161.9531,125.1719 163,124.5938 Q164.0625,124 165.25,124 Q165.9688,124 166.5938,124.25 Q167.2188,124.5 167.75,125 Z " fill="#000000"/><text fill="#000000" font-family="sans-serif" font-size="12" lengthAdjust="spacing" textLength="54" x="186.25" y="133.4102">Controller</text><line style="stroke:#A80036;stroke-width:1.5;" x1="108" x2="286" y1="144.5" y2="144.5"/><line style="stroke:#A80036;stroke-width:1.5;" x1="108" x2="286" y1="152.5" y2="152.5"/><ellipse cx="118" cy="163.5" fill="#84BE84" rx="3" ry="3" style="stroke:#038048;stroke-width:1.0;"/><text fill="#000000" font-family="sans-serif" font-size="11" lengthAdjust="spacing" textLength="154" x="127" y="167.9189">Controller(FactoryState factory)</text><ellipse cx="118" cy="177.3359" fill="#84BE84" rx="3" ry="3" style="stroke:#038048;stroke-width:1.0;"/><text fill="#000000" font-family="sans-serif" font-size="11" lengthAdjust="spacing" textLength="24" x="127" y="181.7549">run()</text><!--MD5=[7d9c3bce528ceb4fb22f2730fa955025]
class FactoryState--><rect codeLine="7" fill="#FEFECE" filter="url(#fvzii3gx5gpms)" height="117.1797" id="FactoryState" style="stroke:#A80036;stroke-width:1.5;" width="129" x="322.5" y="92"/><ellipse cx="351" cy="108" fill="#ADD1B2" rx="11" ry="11" style="stroke:#A80036;stroke-width:1.0;"/><path d="M353,104.5 Q353.2031,104 353.4375,103.75 Q353.6719,103.5 353.9375,103.5 Q354.4063,103.5 354.7031,103.7813 Q355,104.0625 355,104.7188 L355,106.2813 Q355,106.9375 354.7188,107.2188 Q354.4375,107.5 354,107.5 Q353.6094,107.5 353.3594,107.3281 Q353.1094,107.1563 353,106.7031 Q352.9531,106.3906 352.7813,106.2188 Q352.4688,105.8906 351.9063,105.7031 Q351.3438,105.5 350.7813,105.5 Q350.0781,105.5 349.4844,105.7813 Q348.9063,106.0625 348.4531,106.6875 Q348,107.3125 348,108.1719 L348,109.0938 Q348,110.125 348.8438,110.8125 Q349.6875,111.5 351.1875,111.5 Q352.0781,111.5 352.7031,111.2969 Q353.0625,111.1875 353.4688,110.8281 Q353.7344,110.625 353.875,110.5625 Q354.0156,110.5 354.1875,110.5 Q354.5156,110.5 354.75,110.7656 Q355,111.0156 355,111.375 Q355,111.7188 354.6563,112.125 Q354.1563,112.7188 353.3594,113.0469 Q352.3125,113.5 351.0313,113.5 Q349.5313,113.5 348.3281,112.9063 Q347.3594,112.4375 346.6719,111.4219 Q346,110.4063 346,109.2031 L346,108.1094 Q346,106.8594 346.5938,105.7656 Q347.2031,104.6719 348.25,104.0938 Q349.3125,103.5 350.5,103.5 Q351.2188,103.5 351.8438,103.75 Q352.4688,104 353,104.5 Z " fill="#000000"/><text fill="#000000" font-family="sans-serif" font-size="12" lengthAdjust="spacing" textLength="67" x="368" y="112.9102">FactoryState</text><line style="stroke:#A80036;stroke-width:1.5;" x1="323.5" x2="450.5" y1="124" y2="124"/><line style="stroke:#A80036;stroke-width:1.5;" x1="323.5" x2="450.5" y1="132" y2="132"/><ellipse cx="333.5" cy="143" fill="#84BE84" rx="3" ry="3" style="stroke:#038048;stroke-width:1.0;"/><text fill="#000000" font-family="sans-serif" font-size="11" lengthAdjust="spacing" textLength="77" x="342.5" y="147.4189">genMenuState()</text><ellipse cx="333.5" cy="156.8359" fill="#84BE84" rx="3" ry="3" style="stroke:#038048;stroke-width:1.0;"/><text fill="#000000" font-family="sans-serif" font-size="11" lengthAdjust="spacing" textLength="90" x="342.5" y="161.2549">genSettingsState()</text><ellipse cx="333.5" cy="170.6719" fill="#84BE84" rx="3" ry="3" style="stroke:#038048;stroke-width:1.0;"/><text fill="#000000" font-family="sans-serif" font-size="11" lengthAdjust="spacing" textLength="89" x="342.5" y="175.0908">genRankingState()</text><ellipse cx="333.5" cy="184.5078" fill="#84BE84" rx="3" ry="3" style="stroke:#038048;stroke-width:1.0;"/><text fill="#000000" font-family="sans-serif" font-size="11" lengthAdjust="spacing" textLength="79" x="342.5" y="188.9268">genGameState()</text><ellipse cx="333.5" cy="198.3438" fill="#84BE84" rx="3" ry="3" style="stroke:#038048;stroke-width:1.0;"/><text fill="#000000" font-family="sans-serif" font-size="11" lengthAdjust="spacing" textLength="103" x="342.5" y="202.7627">genGameOverState()</text><!--MD5=[7e51a97469e63bc1c86a229e7a434dbc]
class ControllerState--><rect codeLine="15" fill="#FEFECE" filter="url(#fvzii3gx5gpms)" height="61.8359" id="ControllerState" style="stroke:#A80036;stroke-width:1.5;" width="114" x="487" y="119.5"/><ellipse cx="502" cy="135.5" fill="#A9DCDF" rx="11" ry="11" style="stroke:#A80036;stroke-width:1.0;"/><path d="M503.75,137 L500.4531,137 L500.0156,138 L500.0156,138 L500.4844,138 L501,138.625 L501,139 L501,139.375 L500.4844,140 L500.0156,140 L498.125,140 L497.5156,140 L497,139.375 L497,139 L497,138.625 L497.5156,138 L498.125,138 L500.4375,132 L499.5625,132 L498.5156,132 L498,131.375 L498,131 L498,130.625 L498.5156,130 L499.5625,130 L503.2344,130 L505.9219,138 L506.4844,138 L506.4844,138 L507,138.625 L507,139 L507,139.375 L506.4844,140 L505.9219,140 L504.0313,140 L503.5156,140 L503,139.375 L503,139 L503,138.625 L503.5156,138 L504.0313,138 L504.0313,138 L503.75,137 Z M503.2031,135 L502,131.4219 L500.9688,135 L503.2031,135 Z " fill="#000000"/><text fill="#000000" font-family="sans-serif" font-size="12" font-style="italic" lengthAdjust="spacing" textLength="82" x="516" y="140.4102">ControllerState</text><line style="stroke:#A80036;stroke-width:1.5;" x1="488" x2="600" y1="151.5" y2="151.5"/><line style="stroke:#A80036;stroke-width:1.5;" x1="488" x2="600" y1="159.5" y2="159.5"/><ellipse cx="498" cy="170.5" fill="#84BE84" rx="3" ry="3" style="stroke:#038048;stroke-width:1.0;"/><text fill="#000000" font-family="sans-serif" font-size="11" font-style="italic" lengthAdjust="spacing" textLength="24" x="507" y="174.9189">run()</text><path d="M6,137.5 L6,163.8516 A0,0 0 0 0 6,163.8516 L72,163.8516 A0,0 0 0 0 72,163.8516 L72,155.5 L106.68,150.5 L72,147.5 L72,147.5 L62,137.5 L6,137.5 A0,0 0 0 0 6,137.5 " fill="#FBFB77" filter="url(#fvzii3gx5gpms)" style="stroke:#A80036;stroke-width:1.0;"/><path d="M62,137.5 L62,147.5 L72,147.5 L62,137.5 " fill="#FBFB77" style="stroke:#A80036;stroke-width:1.0;"/><text fill="#000000" font-family="sans-serif" font-size="13" lengthAdjust="spacing" textLength="45" x="12" y="155.9951">Context</text><path d="M328,6 L328,32.3516 A0,0 0 0 0 328,32.3516 L383,32.3516 L387,91.98 L391,32.3516 L446,32.3516 A0,0 0 0 0 446,32.3516 L446,16 L436,6 L328,6 A0,0 0 0 0 328,6 " fill="#FBFB77" filter="url(#fvzii3gx5gpms)" style="stroke:#A80036;stroke-width:1.0;"/><path d="M436,6 L436,16 L446,16 L436,6 " fill="#FBFB77" style="stroke:#A80036;stroke-width:1.0;"/><text fill="#000000" font-family="sans-serif" font-size="13" lengthAdjust="spacing" textLength="97" x="334" y="24.4951">Abstract Factory</text><!--MD5=[544778ecb8494622d751526967071f57]
link FactoryState to ControllerState--><path codeLine="19" d="M451.7,150.5 C461.63,150.5 471.56,150.5 481.48,150.5 " fill="none" id="FactoryState-to-ControllerState" style="stroke:#A80036;stroke-width:1.0;stroke-dasharray:7.0,7.0;"/><polygon fill="#A80036" points="486.67,150.5,477.67,146.5,481.67,150.5,477.67,154.5,486.67,150.5" style="stroke:#A80036;stroke-width:1.0;"/><!--MD5=[c55c61e06808187db4287bd909ea9a08]
link Controller to FactoryState--><path codeLine="20" d="M287.18,150.5 C297.14,150.5 307.1,150.5 317.06,150.5 " fill="none" id="Controller-to-FactoryState" style="stroke:#A80036;stroke-width:1.0;"/><polygon fill="#A80036" points="322.27,150.5,313.27,146.5,317.27,150.5,313.27,154.5,322.27,150.5" style="stroke:#A80036;stroke-width:1.0;"/><text fill="#000000" font-family="sans-serif" font-size="13" lengthAdjust="spacing" textLength="7" x="307.3809" y="147.0801">1</text><!--MD5=[c25aa1473dbd08cf68fe9ebb66f04e32]
@startuml
'https://plantuml.com/class-diagram

class Controller{
+Controller(FactoryState factory)
+run()
}
class FactoryState{
+genMenuState()
+genSettingsState()
+genRankingState()
+genGameState()
+genGameOverState()
}

abstract class ControllerState{
+{abstract}run()
}

FactoryState .r.> ControllerState
Controller -r-> "1" FactoryState



note left of Controller: Context
note top of FactoryState: Abstract Factory
@enduml

@startuml

class Controller{
+Controller(FactoryState factory)
+run()
}
class FactoryState{
+genMenuState()
+genSettingsState()
+genRankingState()
+genGameState()
+genGameOverState()
}

abstract class ControllerState{
+{abstract}run()
}

FactoryState .r.> ControllerState
Controller -r-> "1" FactoryState



note left of Controller: Context
note top of FactoryState: Abstract Factory
@enduml

PlantUML version 1.2021.16(Wed Dec 08 17:25:22 GMT 2021)
(GPL source distribution)
Java Runtime: OpenJDK Runtime Environment
JVM: OpenJDK 64-Bit Server VM
Default Encoding: Cp1252
Language: pt
Country: PT
--></g></svg>