<?xml version="1.0" encoding="UTF-8" standalone="no"?><svg xmlns="http://www.w3.org/2000/svg" xmlns:xlink="http://www.w3.org/1999/xlink" contentScriptType="application/ecmascript" contentStyleType="text/css" height="344px" preserveAspectRatio="none" style="width:1086px;height:344px;background:#FFFFFF;" version="1.1" viewBox="0 0 1086 344" width="1086px" zoomAndPan="magnify"><defs><filter height="300%" id="fip7qkgd4zry6" width="300%" x="-1" y="-1"><feGaussianBlur result="blurOut" stdDeviation="2.0"/><feColorMatrix in="blurOut" result="blurOut2" type="matrix" values="0 0 0 0 0 0 0 0 0 0 0 0 0 0 0 0 0 0 .4 0"/><feOffset dx="4.0" dy="4.0" in="blurOut2" result="blurOut3"/><feBlend in="SourceGraphic" in2="blurOut3" mode="normal"/></filter></defs><g><!--MD5=[1d7ba1c7002d54515419844fbd155368]
class Controller--><rect codeLine="3" fill="#FEFECE" filter="url(#fip7qkgd4zry6)" height="75.6719" id="Controller" style="stroke:#A80036;stroke-width:1.5;" width="180" x="107" y="112.5"/><ellipse cx="165.75" cy="128.5" fill="#ADD1B2" rx="11" ry="11" style="stroke:#A80036;stroke-width:1.0;"/><path d="M167.75,125 Q167.9531,124.5 168.1875,124.25 Q168.4219,124 168.6875,124 Q169.1563,124 169.4531,124.2813 Q169.75,124.5625 169.75,125.2188 L169.75,126.7813 Q169.75,127.4375 169.4688,127.7188 Q169.1875,128 168.75,128 Q168.3594,128 168.1094,127.8281 Q167.8594,127.6563 167.75,127.2031 Q167.7031,126.8906 167.5313,126.7188 Q167.2188,126.3906 166.6563,126.2031 Q166.0938,126 165.5313,126 Q164.8281,126 164.2344,126.2813 Q163.6563,126.5625 163.2031,127.1875 Q162.75,127.8125 162.75,128.6719 L162.75,129.5938 Q162.75,130.625 163.5938,131.3125 Q164.4375,132 165.9375,132 Q166.8281,132 167.4531,131.7969 Q167.8125,131.6875 168.2188,131.3281 Q168.4844,131.125 168.625,131.0625 Q168.7656,131 168.9375,131 Q169.2656,131 169.5,131.2656 Q169.75,131.5156 169.75,131.875 Q169.75,132.2188 169.4063,132.625 Q168.9063,133.2188 168.1094,133.5469 Q167.0625,134 165.7813,134 Q164.2813,134 163.0781,133.4063 Q162.1094,132.9375 161.4219,131.9219 Q160.75,130.9063 160.75,129.7031 L160.75,128.6094 Q160.75,127.3594 161.3438,126.2656 Q161.9531,125.1719 163,124.5938 Q164.0625,124 165.25,124 Q165.9688,124 166.5938,124.25 Q167.2188,124.5 167.75,125 Z " fill="#000000"/><text fill="#000000" font-family="sans-serif" font-size="12" lengthAdjust="spacing" textLength="54" x="186.25" y="133.4102">Controller</text><line style="stroke:#A80036;stroke-width:1.5;" x1="108" x2="286" y1="144.5" y2="144.5"/><line style="stroke:#A80036;stroke-width:1.5;" x1="108" x2="286" y1="152.5" y2="152.5"/><ellipse cx="118" cy="163.5" fill="#84BE84" rx="3" ry="3" style="stroke:#038048;stroke-width:1.0;"/><text fill="#000000" font-family="sans-serif" font-size="11" lengthAdjust="spacing" textLength="154" x="127" y="167.9189">Controller(FactoryState factory)</text><ellipse cx="118" cy="177.3359" fill="#84BE84" rx="3" ry="3" style="stroke:#038048;stroke-width:1.0;"/><text fill="#000000" font-family="sans-serif" font-size="11" lengthAdjust="spacing" textLength="24" x="127" y="181.7549">run()</text><!--MD5=[7d9c3bce528ceb4fb22f2730fa955025]
class FactoryState--><rect codeLine="7" fill="#FEFECE" filter="url(#fip7qkgd4zry6)" height="117.1797" id="FactoryState" style="stroke:#A80036;stroke-width:1.5;" width="142" x="322" y="92"/><ellipse cx="356.35" cy="108" fill="#ADD1B2" rx="11" ry="11" style="stroke:#A80036;stroke-width:1.0;"/><path d="M358.35,104.5 Q358.5531,104 358.7875,103.75 Q359.0219,103.5 359.2875,103.5 Q359.7563,103.5 360.0531,103.7813 Q360.35,104.0625 360.35,104.7188 L360.35,106.2813 Q360.35,106.9375 360.0688,107.2188 Q359.7875,107.5 359.35,107.5 Q358.9594,107.5 358.7094,107.3281 Q358.4594,107.1563 358.35,106.7031 Q358.3031,106.3906 358.1313,106.2188 Q357.8188,105.8906 357.2563,105.7031 Q356.6938,105.5 356.1313,105.5 Q355.4281,105.5 354.8344,105.7813 Q354.2563,106.0625 353.8031,106.6875 Q353.35,107.3125 353.35,108.1719 L353.35,109.0938 Q353.35,110.125 354.1938,110.8125 Q355.0375,111.5 356.5375,111.5 Q357.4281,111.5 358.0531,111.2969 Q358.4125,111.1875 358.8188,110.8281 Q359.0844,110.625 359.225,110.5625 Q359.3656,110.5 359.5375,110.5 Q359.8656,110.5 360.1,110.7656 Q360.35,111.0156 360.35,111.375 Q360.35,111.7188 360.0063,112.125 Q359.5063,112.7188 358.7094,113.0469 Q357.6625,113.5 356.3813,113.5 Q354.8813,113.5 353.6781,112.9063 Q352.7094,112.4375 352.0219,111.4219 Q351.35,110.4063 351.35,109.2031 L351.35,108.1094 Q351.35,106.8594 351.9438,105.7656 Q352.5531,104.6719 353.6,104.0938 Q354.6625,103.5 355.85,103.5 Q356.5688,103.5 357.1938,103.75 Q357.8188,104 358.35,104.5 Z " fill="#000000"/><text fill="#000000" font-family="sans-serif" font-size="12" lengthAdjust="spacing" textLength="67" x="374.65" y="112.9102">FactoryState</text><line style="stroke:#A80036;stroke-width:1.5;" x1="323" x2="463" y1="124" y2="124"/><line style="stroke:#A80036;stroke-width:1.5;" x1="323" x2="463" y1="132" y2="132"/><ellipse cx="333" cy="143" fill="#84BE84" rx="3" ry="3" style="stroke:#038048;stroke-width:1.0;"/><text fill="#000000" font-family="sans-serif" font-size="11" lengthAdjust="spacing" textLength="77" x="342" y="147.4189">genMenuState()</text><ellipse cx="333" cy="156.8359" fill="#84BE84" rx="3" ry="3" style="stroke:#038048;stroke-width:1.0;"/><text fill="#000000" font-family="sans-serif" font-size="11" lengthAdjust="spacing" textLength="116" x="342" y="161.2549">genSettingsMenuState()</text><ellipse cx="333" cy="170.6719" fill="#84BE84" rx="3" ry="3" style="stroke:#038048;stroke-width:1.0;"/><text fill="#000000" font-family="sans-serif" font-size="11" lengthAdjust="spacing" textLength="115" x="342" y="175.0908">genRankingMenuState()</text><ellipse cx="333" cy="184.5078" fill="#84BE84" rx="3" ry="3" style="stroke:#038048;stroke-width:1.0;"/><text fill="#000000" font-family="sans-serif" font-size="11" lengthAdjust="spacing" textLength="81" x="342" y="188.9268">genPauseState()</text><ellipse cx="333" cy="198.3438" fill="#84BE84" rx="3" ry="3" style="stroke:#038048;stroke-width:1.0;"/><text fill="#000000" font-family="sans-serif" font-size="11" lengthAdjust="spacing" textLength="103" x="342" y="202.7627">genGameOverState()</text><!--MD5=[7e51a97469e63bc1c86a229e7a434dbc]
class ControllerState--><rect codeLine="14" fill="#FEFECE" filter="url(#fip7qkgd4zry6)" height="61.8359" id="ControllerState" style="stroke:#A80036;stroke-width:1.5;" width="114" x="499" y="119.5"/><ellipse cx="514" cy="135.5" fill="#A9DCDF" rx="11" ry="11" style="stroke:#A80036;stroke-width:1.0;"/><path d="M515.75,137 L512.4531,137 L512.0156,138 L512.0156,138 L512.4844,138 L513,138.625 L513,139 L513,139.375 L512.4844,140 L512.0156,140 L510.125,140 L509.5156,140 L509,139.375 L509,139 L509,138.625 L509.5156,138 L510.125,138 L512.4375,132 L511.5625,132 L510.5156,132 L510,131.375 L510,131 L510,130.625 L510.5156,130 L511.5625,130 L515.2344,130 L517.9219,138 L518.4844,138 L518.4844,138 L519,138.625 L519,139 L519,139.375 L518.4844,140 L517.9219,140 L516.0313,140 L515.5156,140 L515,139.375 L515,139 L515,138.625 L515.5156,138 L516.0313,138 L516.0313,138 L515.75,137 Z M515.2031,135 L514,131.4219 L512.9688,135 L515.2031,135 Z " fill="#000000"/><text fill="#000000" font-family="sans-serif" font-size="12" font-style="italic" lengthAdjust="spacing" textLength="82" x="528" y="140.4102">ControllerState</text><line style="stroke:#A80036;stroke-width:1.5;" x1="500" x2="612" y1="151.5" y2="151.5"/><line style="stroke:#A80036;stroke-width:1.5;" x1="500" x2="612" y1="159.5" y2="159.5"/><ellipse cx="510" cy="170.5" fill="#84BE84" rx="3" ry="3" style="stroke:#038048;stroke-width:1.0;"/><text fill="#000000" font-family="sans-serif" font-size="11" font-style="italic" lengthAdjust="spacing" textLength="24" x="519" y="174.9189">run()</text><!--MD5=[7bcbd864a0d3e394188a6ff03635bc96]
class MenuState--><rect codeLine="18" fill="#FEFECE" filter="url(#fip7qkgd4zry6)" height="61.8359" id="MenuState" style="stroke:#A80036;stroke-width:1.5;" width="90" x="212" y="269"/><ellipse cx="227" cy="285" fill="#ADD1B2" rx="11" ry="11" style="stroke:#A80036;stroke-width:1.0;"/><path d="M229,281.5 Q229.2031,281 229.4375,280.75 Q229.6719,280.5 229.9375,280.5 Q230.4063,280.5 230.7031,280.7813 Q231,281.0625 231,281.7188 L231,283.2813 Q231,283.9375 230.7188,284.2188 Q230.4375,284.5 230,284.5 Q229.6094,284.5 229.3594,284.3281 Q229.1094,284.1563 229,283.7031 Q228.9531,283.3906 228.7813,283.2188 Q228.4688,282.8906 227.9063,282.7031 Q227.3438,282.5 226.7813,282.5 Q226.0781,282.5 225.4844,282.7813 Q224.9063,283.0625 224.4531,283.6875 Q224,284.3125 224,285.1719 L224,286.0938 Q224,287.125 224.8438,287.8125 Q225.6875,288.5 227.1875,288.5 Q228.0781,288.5 228.7031,288.2969 Q229.0625,288.1875 229.4688,287.8281 Q229.7344,287.625 229.875,287.5625 Q230.0156,287.5 230.1875,287.5 Q230.5156,287.5 230.75,287.7656 Q231,288.0156 231,288.375 Q231,288.7188 230.6563,289.125 Q230.1563,289.7188 229.3594,290.0469 Q228.3125,290.5 227.0313,290.5 Q225.5313,290.5 224.3281,289.9063 Q223.3594,289.4375 222.6719,288.4219 Q222,287.4063 222,286.2031 L222,285.1094 Q222,283.8594 222.5938,282.7656 Q223.2031,281.6719 224.25,281.0938 Q225.3125,280.5 226.5,280.5 Q227.2188,280.5 227.8438,280.75 Q228.4688,281 229,281.5 Z " fill="#000000"/><text fill="#000000" font-family="sans-serif" font-size="12" lengthAdjust="spacing" textLength="58" x="241" y="289.9102">MenuState</text><line style="stroke:#A80036;stroke-width:1.5;" x1="213" x2="301" y1="301" y2="301"/><line style="stroke:#A80036;stroke-width:1.5;" x1="213" x2="301" y1="309" y2="309"/><ellipse cx="223" cy="320" fill="#84BE84" rx="3" ry="3" style="stroke:#038048;stroke-width:1.0;"/><text fill="#000000" font-family="sans-serif" font-size="11" lengthAdjust="spacing" textLength="24" x="232" y="324.4189">run()</text><!--MD5=[7c1883700b8536b1aa4525d366b3c753]
class RankingMenuState--><rect codeLine="21" fill="#FEFECE" filter="url(#fip7qkgd4zry6)" height="61.8359" id="RankingMenuState" style="stroke:#A80036;stroke-width:1.5;" width="136" x="337" y="269"/><ellipse cx="352" cy="285" fill="#ADD1B2" rx="11" ry="11" style="stroke:#A80036;stroke-width:1.0;"/><path d="M354,281.5 Q354.2031,281 354.4375,280.75 Q354.6719,280.5 354.9375,280.5 Q355.4063,280.5 355.7031,280.7813 Q356,281.0625 356,281.7188 L356,283.2813 Q356,283.9375 355.7188,284.2188 Q355.4375,284.5 355,284.5 Q354.6094,284.5 354.3594,284.3281 Q354.1094,284.1563 354,283.7031 Q353.9531,283.3906 353.7813,283.2188 Q353.4688,282.8906 352.9063,282.7031 Q352.3438,282.5 351.7813,282.5 Q351.0781,282.5 350.4844,282.7813 Q349.9063,283.0625 349.4531,283.6875 Q349,284.3125 349,285.1719 L349,286.0938 Q349,287.125 349.8438,287.8125 Q350.6875,288.5 352.1875,288.5 Q353.0781,288.5 353.7031,288.2969 Q354.0625,288.1875 354.4688,287.8281 Q354.7344,287.625 354.875,287.5625 Q355.0156,287.5 355.1875,287.5 Q355.5156,287.5 355.75,287.7656 Q356,288.0156 356,288.375 Q356,288.7188 355.6563,289.125 Q355.1563,289.7188 354.3594,290.0469 Q353.3125,290.5 352.0313,290.5 Q350.5313,290.5 349.3281,289.9063 Q348.3594,289.4375 347.6719,288.4219 Q347,287.4063 347,286.2031 L347,285.1094 Q347,283.8594 347.5938,282.7656 Q348.2031,281.6719 349.25,281.0938 Q350.3125,280.5 351.5,280.5 Q352.2188,280.5 352.8438,280.75 Q353.4688,281 354,281.5 Z " fill="#000000"/><text fill="#000000" font-family="sans-serif" font-size="12" lengthAdjust="spacing" textLength="104" x="366" y="289.9102">RankingMenuState</text><line style="stroke:#A80036;stroke-width:1.5;" x1="338" x2="472" y1="301" y2="301"/><line style="stroke:#A80036;stroke-width:1.5;" x1="338" x2="472" y1="309" y2="309"/><ellipse cx="348" cy="320" fill="#84BE84" rx="3" ry="3" style="stroke:#038048;stroke-width:1.0;"/><text fill="#000000" font-family="sans-serif" font-size="11" lengthAdjust="spacing" textLength="24" x="357" y="324.4189">run()</text><!--MD5=[f9bd5738898a57dffc8d67c0fe89558f]
class SettingsMenuState--><rect codeLine="24" fill="#FEFECE" filter="url(#fip7qkgd4zry6)" height="61.8359" id="SettingsMenuState" style="stroke:#A80036;stroke-width:1.5;" width="135" x="937.5" y="269"/><ellipse cx="952.5" cy="285" fill="#ADD1B2" rx="11" ry="11" style="stroke:#A80036;stroke-width:1.0;"/><path d="M954.5,281.5 Q954.7031,281 954.9375,280.75 Q955.1719,280.5 955.4375,280.5 Q955.9063,280.5 956.2031,280.7813 Q956.5,281.0625 956.5,281.7188 L956.5,283.2813 Q956.5,283.9375 956.2188,284.2188 Q955.9375,284.5 955.5,284.5 Q955.1094,284.5 954.8594,284.3281 Q954.6094,284.1563 954.5,283.7031 Q954.4531,283.3906 954.2813,283.2188 Q953.9688,282.8906 953.4063,282.7031 Q952.8438,282.5 952.2813,282.5 Q951.5781,282.5 950.9844,282.7813 Q950.4063,283.0625 949.9531,283.6875 Q949.5,284.3125 949.5,285.1719 L949.5,286.0938 Q949.5,287.125 950.3438,287.8125 Q951.1875,288.5 952.6875,288.5 Q953.5781,288.5 954.2031,288.2969 Q954.5625,288.1875 954.9688,287.8281 Q955.2344,287.625 955.375,287.5625 Q955.5156,287.5 955.6875,287.5 Q956.0156,287.5 956.25,287.7656 Q956.5,288.0156 956.5,288.375 Q956.5,288.7188 956.1563,289.125 Q955.6563,289.7188 954.8594,290.0469 Q953.8125,290.5 952.5313,290.5 Q951.0313,290.5 949.8281,289.9063 Q948.8594,289.4375 948.1719,288.4219 Q947.5,287.4063 947.5,286.2031 L947.5,285.1094 Q947.5,283.8594 948.0938,282.7656 Q948.7031,281.6719 949.75,281.0938 Q950.8125,280.5 952,280.5 Q952.7188,280.5 953.3438,280.75 Q953.9688,281 954.5,281.5 Z " fill="#000000"/><text fill="#000000" font-family="sans-serif" font-size="12" lengthAdjust="spacing" textLength="103" x="966.5" y="289.9102">SettingsMenuState</text><line style="stroke:#A80036;stroke-width:1.5;" x1="938.5" x2="1071.5" y1="301" y2="301"/><line style="stroke:#A80036;stroke-width:1.5;" x1="938.5" x2="1071.5" y1="309" y2="309"/><ellipse cx="948.5" cy="320" fill="#84BE84" rx="3" ry="3" style="stroke:#038048;stroke-width:1.0;"/><text fill="#000000" font-family="sans-serif" font-size="11" lengthAdjust="spacing" textLength="24" x="957.5" y="324.4189">run()</text><!--MD5=[ec9d5687213b304e0444c39a65347d73]
class PauseState--><rect codeLine="27" fill="#FEFECE" filter="url(#fip7qkgd4zry6)" height="61.8359" id="PauseState" style="stroke:#A80036;stroke-width:1.5;" width="96" x="508" y="269"/><ellipse cx="523" cy="285" fill="#ADD1B2" rx="11" ry="11" style="stroke:#A80036;stroke-width:1.0;"/><path d="M525,281.5 Q525.2031,281 525.4375,280.75 Q525.6719,280.5 525.9375,280.5 Q526.4063,280.5 526.7031,280.7813 Q527,281.0625 527,281.7188 L527,283.2813 Q527,283.9375 526.7188,284.2188 Q526.4375,284.5 526,284.5 Q525.6094,284.5 525.3594,284.3281 Q525.1094,284.1563 525,283.7031 Q524.9531,283.3906 524.7813,283.2188 Q524.4688,282.8906 523.9063,282.7031 Q523.3438,282.5 522.7813,282.5 Q522.0781,282.5 521.4844,282.7813 Q520.9063,283.0625 520.4531,283.6875 Q520,284.3125 520,285.1719 L520,286.0938 Q520,287.125 520.8438,287.8125 Q521.6875,288.5 523.1875,288.5 Q524.0781,288.5 524.7031,288.2969 Q525.0625,288.1875 525.4688,287.8281 Q525.7344,287.625 525.875,287.5625 Q526.0156,287.5 526.1875,287.5 Q526.5156,287.5 526.75,287.7656 Q527,288.0156 527,288.375 Q527,288.7188 526.6563,289.125 Q526.1563,289.7188 525.3594,290.0469 Q524.3125,290.5 523.0313,290.5 Q521.5313,290.5 520.3281,289.9063 Q519.3594,289.4375 518.6719,288.4219 Q518,287.4063 518,286.2031 L518,285.1094 Q518,283.8594 518.5938,282.7656 Q519.2031,281.6719 520.25,281.0938 Q521.3125,280.5 522.5,280.5 Q523.2188,280.5 523.8438,280.75 Q524.4688,281 525,281.5 Z " fill="#000000"/><text fill="#000000" font-family="sans-serif" font-size="12" lengthAdjust="spacing" textLength="64" x="537" y="289.9102">PauseState</text><line style="stroke:#A80036;stroke-width:1.5;" x1="509" x2="603" y1="301" y2="301"/><line style="stroke:#A80036;stroke-width:1.5;" x1="509" x2="603" y1="309" y2="309"/><ellipse cx="519" cy="320" fill="#84BE84" rx="3" ry="3" style="stroke:#038048;stroke-width:1.0;"/><text fill="#000000" font-family="sans-serif" font-size="11" lengthAdjust="spacing" textLength="24" x="528" y="324.4189">run()</text><!--MD5=[8fa0b5d19129e6d6514a5f0fce8ff44e]
class GameOverState--><rect codeLine="30" fill="#FEFECE" filter="url(#fip7qkgd4zry6)" height="61.8359" id="GameOverState" style="stroke:#A80036;stroke-width:1.5;" width="119" x="639.5" y="269"/><ellipse cx="654.5" cy="285" fill="#ADD1B2" rx="11" ry="11" style="stroke:#A80036;stroke-width:1.0;"/><path d="M656.5,281.5 Q656.7031,281 656.9375,280.75 Q657.1719,280.5 657.4375,280.5 Q657.9063,280.5 658.2031,280.7813 Q658.5,281.0625 658.5,281.7188 L658.5,283.2813 Q658.5,283.9375 658.2188,284.2188 Q657.9375,284.5 657.5,284.5 Q657.1094,284.5 656.8594,284.3281 Q656.6094,284.1563 656.5,283.7031 Q656.4531,283.3906 656.2813,283.2188 Q655.9688,282.8906 655.4063,282.7031 Q654.8438,282.5 654.2813,282.5 Q653.5781,282.5 652.9844,282.7813 Q652.4063,283.0625 651.9531,283.6875 Q651.5,284.3125 651.5,285.1719 L651.5,286.0938 Q651.5,287.125 652.3438,287.8125 Q653.1875,288.5 654.6875,288.5 Q655.5781,288.5 656.2031,288.2969 Q656.5625,288.1875 656.9688,287.8281 Q657.2344,287.625 657.375,287.5625 Q657.5156,287.5 657.6875,287.5 Q658.0156,287.5 658.25,287.7656 Q658.5,288.0156 658.5,288.375 Q658.5,288.7188 658.1563,289.125 Q657.6563,289.7188 656.8594,290.0469 Q655.8125,290.5 654.5313,290.5 Q653.0313,290.5 651.8281,289.9063 Q650.8594,289.4375 650.1719,288.4219 Q649.5,287.4063 649.5,286.2031 L649.5,285.1094 Q649.5,283.8594 650.0938,282.7656 Q650.7031,281.6719 651.75,281.0938 Q652.8125,280.5 654,280.5 Q654.7188,280.5 655.3438,280.75 Q655.9688,281 656.5,281.5 Z " fill="#000000"/><text fill="#000000" font-family="sans-serif" font-size="12" lengthAdjust="spacing" textLength="87" x="668.5" y="289.9102">GameOverState</text><line style="stroke:#A80036;stroke-width:1.5;" x1="640.5" x2="757.5" y1="301" y2="301"/><line style="stroke:#A80036;stroke-width:1.5;" x1="640.5" x2="757.5" y1="309" y2="309"/><ellipse cx="650.5" cy="320" fill="#84BE84" rx="3" ry="3" style="stroke:#038048;stroke-width:1.0;"/><text fill="#000000" font-family="sans-serif" font-size="11" lengthAdjust="spacing" textLength="24" x="659.5" y="324.4189">run()</text><path d="M648,137.5 L648,146.5 L613.16,150.5 L648,154.5 L648,163.8516 A0,0 0 0 0 648,163.8516 L700,163.8516 A0,0 0 0 0 700,163.8516 L700,147.5 L690,137.5 L648,137.5 A0,0 0 0 0 648,137.5 " fill="#FBFB77" filter="url(#fip7qkgd4zry6)" style="stroke:#A80036;stroke-width:1.0;"/><path d="M690,137.5 L690,147.5 L700,147.5 L690,137.5 " fill="#FBFB77" style="stroke:#A80036;stroke-width:1.0;"/><text fill="#000000" font-family="sans-serif" font-size="13" lengthAdjust="spacing" textLength="31" x="654" y="155.9951">State</text><path d="M794,287 L794,313.3516 A0,0 0 0 0 794,313.3516 L902,313.3516 A0,0 0 0 0 902,313.3516 L902,305 L937.19,300 L902,297 L902,297 L892,287 L794,287 A0,0 0 0 0 794,287 " fill="#FBFB77" filter="url(#fip7qkgd4zry6)" style="stroke:#A80036;stroke-width:1.0;"/><path d="M892,287 L892,297 L902,297 L892,287 " fill="#FBFB77" style="stroke:#A80036;stroke-width:1.0;"/><text fill="#000000" font-family="sans-serif" font-size="13" lengthAdjust="spacing" textLength="87" x="800" y="305.4951">Concrete State</text><path d="M6,137.5 L6,163.8516 A0,0 0 0 0 6,163.8516 L72,163.8516 A0,0 0 0 0 72,163.8516 L72,155.5 L106.68,150.5 L72,147.5 L72,147.5 L62,137.5 L6,137.5 A0,0 0 0 0 6,137.5 " fill="#FBFB77" filter="url(#fip7qkgd4zry6)" style="stroke:#A80036;stroke-width:1.0;"/><path d="M62,137.5 L62,147.5 L72,147.5 L62,137.5 " fill="#FBFB77" style="stroke:#A80036;stroke-width:1.0;"/><text fill="#000000" font-family="sans-serif" font-size="13" lengthAdjust="spacing" textLength="45" x="12" y="155.9951">Context</text><path d="M334,6 L334,32.3516 A0,0 0 0 0 334,32.3516 L389,32.3516 L393,91.98 L397,32.3516 L452,32.3516 A0,0 0 0 0 452,32.3516 L452,16 L442,6 L334,6 A0,0 0 0 0 334,6 " fill="#FBFB77" filter="url(#fip7qkgd4zry6)" style="stroke:#A80036;stroke-width:1.0;"/><path d="M442,6 L442,16 L452,16 L442,6 " fill="#FBFB77" style="stroke:#A80036;stroke-width:1.0;"/><text fill="#000000" font-family="sans-serif" font-size="13" lengthAdjust="spacing" textLength="97" x="340" y="24.4951">Abstract Factory</text><!--MD5=[30a8d75400fc8cb6e033e64b5f6ca5e2]
reverse link ControllerState to MenuState--><path codeLine="35" d="M505.69,193.83 C498.01,199.33 489.98,204.57 482,209 C414.5,246.46 390.05,238.82 319,269 C313.5,271.34 307.78,273.91 302.14,276.53 " fill="none" id="ControllerState-backto-MenuState" style="stroke:#A80036;stroke-width:1.0;"/><polygon fill="none" points="501.62,188.13,521.79,181.63,510.08,199.29,501.62,188.13" style="stroke:#A80036;stroke-width:1.0;"/><!--MD5=[9603a85973e780b4bd66cafa5d1bb335]
reverse link ControllerState to RankingMenuState--><path codeLine="36" d="M510.43,196.01 C486.32,219.56 457.35,247.87 435.88,268.84 " fill="none" id="ControllerState-backto-RankingMenuState" style="stroke:#A80036;stroke-width:1.0;"/><polygon fill="none" points="505.88,190.67,525.08,181.7,515.66,200.69,505.88,190.67" style="stroke:#A80036;stroke-width:1.0;"/><!--MD5=[7afc34516666eb2f87b1d700b3c4e732]
reverse link ControllerState to SettingsMenuState--><path codeLine="37" d="M604.84,193.81 C613.18,199.57 622.05,204.9 631,209 C750.27,263.61 793.64,233.76 920,269 C925.58,270.56 931.32,272.29 937.06,274.11 " fill="none" id="ControllerState-backto-SettingsMenuState" style="stroke:#A80036;stroke-width:1.0;"/><polygon fill="none" points="600.41,199.23,588.62,181.62,608.82,188.03,600.41,199.23" style="stroke:#A80036;stroke-width:1.0;"/><!--MD5=[3f07f126c162038620992d8a1afbc965]
reverse link ControllerState to PauseState--><path codeLine="38" d="M556,201.79 C556,224.08 556,249.56 556,268.84 " fill="none" id="ControllerState-backto-PauseState" style="stroke:#A80036;stroke-width:1.0;"/><polygon fill="none" points="549,201.7,556,181.7,563,201.7,549,201.7" style="stroke:#A80036;stroke-width:1.0;"/><!--MD5=[06d6d2b30e3c75b625449afe4a475587]
reverse link ControllerState to GameOverState--><path codeLine="39" d="M599.48,196.34 C622.25,219.83 649.52,247.97 669.76,268.84 " fill="none" id="ControllerState-backto-GameOverState" style="stroke:#A80036;stroke-width:1.0;"/><polygon fill="none" points="594.18,200.94,585.28,181.7,604.23,191.19,594.18,200.94" style="stroke:#A80036;stroke-width:1.0;"/><!--MD5=[544778ecb8494622d751526967071f57]
link FactoryState to ControllerState--><path codeLine="42" d="M464.31,150.5 C474.07,150.5 483.83,150.5 493.59,150.5 " fill="none" id="FactoryState-to-ControllerState" style="stroke:#A80036;stroke-width:1.0;stroke-dasharray:7.0,7.0;"/><polygon fill="#A80036" points="498.7,150.5,489.7,146.5,493.7,150.5,489.7,154.5,498.7,150.5" style="stroke:#A80036;stroke-width:1.0;"/><!--MD5=[c55c61e06808187db4287bd909ea9a08]
link Controller to FactoryState--><path codeLine="43" d="M287.34,150.5 C297.07,150.5 306.79,150.5 316.51,150.5 " fill="none" id="Controller-to-FactoryState" style="stroke:#A80036;stroke-width:1.0;"/><polygon fill="#A80036" points="321.6,150.5,312.6,146.5,316.6,150.5,312.6,154.5,321.6,150.5" style="stroke:#A80036;stroke-width:1.0;"/><text fill="#000000" font-family="sans-serif" font-size="13" lengthAdjust="spacing" textLength="7" x="306.8759" y="147.179">1</text><!--MD5=[360369aa338ed27ee46df8d4c95a5608]
@startuml
'https://plantuml.com/class-diagram

class Controller{
+Controller(FactoryState factory)
+run()
}
class FactoryState{
+genMenuState()
+genSettingsMenuState()
+genRankingMenuState()
+genPauseState()
+genGameOverState()
}
abstract class ControllerState{
+{abstract}run()
}

class MenuState{
+run()
}
class RankingMenuState{
+run()
}
class SettingsMenuState{
+run()
}
class PauseState{
+run()
}
class GameOverState{
+run()
}


ControllerState <|- - MenuState
ControllerState <|- - RankingMenuState
ControllerState <|- - SettingsMenuState
ControllerState <|- - PauseState
ControllerState <|- - GameOverState


FactoryState .r.> ControllerState
Controller -r-> "1" FactoryState

note right of ControllerState: State
note "Concrete State" as N1
N1 - SettingsMenuState

note left of Controller: Context
note top of FactoryState: Abstract Factory
@enduml

@startuml

class Controller{
+Controller(FactoryState factory)
+run()
}
class FactoryState{
+genMenuState()
+genSettingsMenuState()
+genRankingMenuState()
+genPauseState()
+genGameOverState()
}
abstract class ControllerState{
+{abstract}run()
}

class MenuState{
+run()
}
class RankingMenuState{
+run()
}
class SettingsMenuState{
+run()
}
class PauseState{
+run()
}
class GameOverState{
+run()
}


ControllerState <|- - MenuState
ControllerState <|- - RankingMenuState
ControllerState <|- - SettingsMenuState
ControllerState <|- - PauseState
ControllerState <|- - GameOverState


FactoryState .r.> ControllerState
Controller -r-> "1" FactoryState

note right of ControllerState: State
note "Concrete State" as N1
N1 - SettingsMenuState

note left of Controller: Context
note top of FactoryState: Abstract Factory
@enduml

PlantUML version 1.2021.16(Wed Dec 08 17:25:22 GMT 2021)
(GPL source distribution)
Java Runtime: OpenJDK Runtime Environment
JVM: OpenJDK 64-Bit Server VM
Default Encoding: Cp1252
Language: pt
Country: PT
--></g></svg>