<?xml version="1.0" encoding="UTF-8" standalone="no"?><svg xmlns="http://www.w3.org/2000/svg" xmlns:xlink="http://www.w3.org/1999/xlink" contentScriptType="application/ecmascript" contentStyleType="text/css" height="326px" preserveAspectRatio="none" style="width:234px;height:326px;background:#FFFFFF;" version="1.1" viewBox="0 0 234 326" width="234px" zoomAndPan="magnify"><defs><filter height="300%" id="ftsr4g187683a" width="300%" x="-1" y="-1"><feGaussianBlur result="blurOut" stdDeviation="2.0"/><feColorMatrix in="blurOut" result="blurOut2" type="matrix" values="0 0 0 0 0 0 0 0 0 0 0 0 0 0 0 0 0 0 .4 0"/><feOffset dx="4.0" dy="4.0" in="blurOut2" result="blurOut3"/><feBlend in="SourceGraphic" in2="blurOut3" mode="normal"/></filter></defs><g><!--MD5=[80c532e980642ebbe770e7ed91e479d0]
class Enemy--><rect codeLine="4" fill="#FEFECE" filter="url(#ftsr4g187683a)" height="61.8359" id="Enemy" style="stroke:#A80036;stroke-width:1.5;" width="89" x="69" y="129"/><ellipse cx="92.1" cy="145" fill="#A9DCDF" rx="11" ry="11" style="stroke:#A80036;stroke-width:1.0;"/><path d="M93.85,146.5 L90.5531,146.5 L90.1156,147.5 L90.1156,147.5 L90.5844,147.5 L91.1,148.125 L91.1,148.5 L91.1,148.875 L90.5844,149.5 L90.1156,149.5 L88.225,149.5 L87.6156,149.5 L87.1,148.875 L87.1,148.5 L87.1,148.125 L87.6156,147.5 L88.225,147.5 L90.5375,141.5 L89.6625,141.5 L88.6156,141.5 L88.1,140.875 L88.1,140.5 L88.1,140.125 L88.6156,139.5 L89.6625,139.5 L93.3344,139.5 L96.0219,147.5 L96.5844,147.5 L96.5844,147.5 L97.1,148.125 L97.1,148.5 L97.1,148.875 L96.5844,149.5 L96.0219,149.5 L94.1313,149.5 L93.6156,149.5 L93.1,148.875 L93.1,148.5 L93.1,148.125 L93.6156,147.5 L94.1313,147.5 L94.1313,147.5 L93.85,146.5 Z M93.3031,144.5 L92.1,140.9219 L91.0688,144.5 L93.3031,144.5 Z " fill="#000000"/><text fill="#000000" font-family="sans-serif" font-size="12" font-style="italic" lengthAdjust="spacing" textLength="39" x="107.9" y="149.9102">Enemy</text><line style="stroke:#A80036;stroke-width:1.5;" x1="70" x2="157" y1="161" y2="161"/><line style="stroke:#A80036;stroke-width:1.5;" x1="70" x2="157" y1="169" y2="169"/><ellipse cx="80" cy="180" fill="#84BE84" rx="3" ry="3" style="stroke:#038048;stroke-width:1.0;"/><text fill="#000000" font-family="sans-serif" font-size="11" lengthAdjust="spacing" textLength="63" x="89" y="184.4189">move() : void</text><!--MD5=[612ba1bd76ba2e43180f8a4c173689eb]
class Enemies--><rect codeLine="8" fill="#FEFECE" filter="url(#ftsr4g187683a)" height="61.8359" id="Enemies" style="stroke:#A80036;stroke-width:1.5;" width="129" x="49" y="7"/><ellipse cx="85.15" cy="23" fill="#ADD1B2" rx="11" ry="11" style="stroke:#A80036;stroke-width:1.0;"/><path d="M87.15,19.5 Q87.3531,19 87.5875,18.75 Q87.8219,18.5 88.0875,18.5 Q88.5563,18.5 88.8531,18.7813 Q89.15,19.0625 89.15,19.7188 L89.15,21.2813 Q89.15,21.9375 88.8688,22.2188 Q88.5875,22.5 88.15,22.5 Q87.7594,22.5 87.5094,22.3281 Q87.2594,22.1563 87.15,21.7031 Q87.1031,21.3906 86.9313,21.2188 Q86.6188,20.8906 86.0563,20.7031 Q85.4938,20.5 84.9313,20.5 Q84.2281,20.5 83.6344,20.7813 Q83.0563,21.0625 82.6031,21.6875 Q82.15,22.3125 82.15,23.1719 L82.15,24.0938 Q82.15,25.125 82.9938,25.8125 Q83.8375,26.5 85.3375,26.5 Q86.2281,26.5 86.8531,26.2969 Q87.2125,26.1875 87.6188,25.8281 Q87.8844,25.625 88.025,25.5625 Q88.1656,25.5 88.3375,25.5 Q88.6656,25.5 88.9,25.7656 Q89.15,26.0156 89.15,26.375 Q89.15,26.7188 88.8063,27.125 Q88.3063,27.7188 87.5094,28.0469 Q86.4625,28.5 85.1813,28.5 Q83.6813,28.5 82.4781,27.9063 Q81.5094,27.4375 80.8219,26.4219 Q80.15,25.4063 80.15,24.2031 L80.15,23.1094 Q80.15,21.8594 80.7438,20.7656 Q81.3531,19.6719 82.4,19.0938 Q83.4625,18.5 84.65,18.5 Q85.3688,18.5 85.9938,18.75 Q86.6188,19 87.15,19.5 Z " fill="#000000"/><text fill="#000000" font-family="sans-serif" font-size="12" lengthAdjust="spacing" textLength="50" x="103.85" y="27.9102">Enemies</text><line style="stroke:#A80036;stroke-width:1.5;" x1="50" x2="177" y1="39" y2="39"/><line style="stroke:#A80036;stroke-width:1.5;" x1="50" x2="177" y1="47" y2="47"/><ellipse cx="60" cy="58" fill="#84BE84" rx="3" ry="3" style="stroke:#038048;stroke-width:1.0;"/><text fill="#000000" font-family="sans-serif" font-size="11" lengthAdjust="spacing" textLength="103" x="69" y="62.4189">moveEnemies() : void</text><!--MD5=[0ec5399c048466d00a31875a1c1775fc]
class Dragon--><rect codeLine="12" fill="#FEFECE" filter="url(#ftsr4g187683a)" height="61.8359" id="Dragon" style="stroke:#A80036;stroke-width:1.5;" width="89" x="7" y="251"/><ellipse cx="29.2" cy="267" fill="#ADD1B2" rx="11" ry="11" style="stroke:#A80036;stroke-width:1.0;"/><path d="M31.2,263.5 Q31.4031,263 31.6375,262.75 Q31.8719,262.5 32.1375,262.5 Q32.6063,262.5 32.9031,262.7813 Q33.2,263.0625 33.2,263.7188 L33.2,265.2813 Q33.2,265.9375 32.9188,266.2188 Q32.6375,266.5 32.2,266.5 Q31.8094,266.5 31.5594,266.3281 Q31.3094,266.1563 31.2,265.7031 Q31.1531,265.3906 30.9813,265.2188 Q30.6688,264.8906 30.1063,264.7031 Q29.5438,264.5 28.9813,264.5 Q28.2781,264.5 27.6844,264.7813 Q27.1063,265.0625 26.6531,265.6875 Q26.2,266.3125 26.2,267.1719 L26.2,268.0938 Q26.2,269.125 27.0438,269.8125 Q27.8875,270.5 29.3875,270.5 Q30.2781,270.5 30.9031,270.2969 Q31.2625,270.1875 31.6688,269.8281 Q31.9344,269.625 32.075,269.5625 Q32.2156,269.5 32.3875,269.5 Q32.7156,269.5 32.95,269.7656 Q33.2,270.0156 33.2,270.375 Q33.2,270.7188 32.8563,271.125 Q32.3563,271.7188 31.5594,272.0469 Q30.5125,272.5 29.2313,272.5 Q27.7313,272.5 26.5281,271.9063 Q25.5594,271.4375 24.8719,270.4219 Q24.2,269.4063 24.2,268.2031 L24.2,267.1094 Q24.2,265.8594 24.7938,264.7656 Q25.4031,263.6719 26.45,263.0938 Q27.5125,262.5 28.7,262.5 Q29.4188,262.5 30.0438,262.75 Q30.6688,263 31.2,263.5 Z " fill="#000000"/><text fill="#000000" font-family="sans-serif" font-size="12" lengthAdjust="spacing" textLength="41" x="44.8" y="271.9102">Dragon</text><line style="stroke:#A80036;stroke-width:1.5;" x1="8" x2="95" y1="283" y2="283"/><line style="stroke:#A80036;stroke-width:1.5;" x1="8" x2="95" y1="291" y2="291"/><ellipse cx="18" cy="302" fill="#84BE84" rx="3" ry="3" style="stroke:#038048;stroke-width:1.0;"/><text fill="#000000" font-family="sans-serif" font-size="11" lengthAdjust="spacing" textLength="63" x="27" y="306.4189">move() : void</text><!--MD5=[24998ffae2356b5bf0d5b2d62def9309]
class Dementor--><rect codeLine="16" fill="#FEFECE" filter="url(#ftsr4g187683a)" height="61.8359" id="Dementor" style="stroke:#A80036;stroke-width:1.5;" width="89" x="131" y="251"/><ellipse cx="146.9" cy="267" fill="#ADD1B2" rx="11" ry="11" style="stroke:#A80036;stroke-width:1.0;"/><path d="M148.9,263.5 Q149.1031,263 149.3375,262.75 Q149.5719,262.5 149.8375,262.5 Q150.3063,262.5 150.6031,262.7813 Q150.9,263.0625 150.9,263.7188 L150.9,265.2813 Q150.9,265.9375 150.6188,266.2188 Q150.3375,266.5 149.9,266.5 Q149.5094,266.5 149.2594,266.3281 Q149.0094,266.1563 148.9,265.7031 Q148.8531,265.3906 148.6813,265.2188 Q148.3688,264.8906 147.8063,264.7031 Q147.2438,264.5 146.6813,264.5 Q145.9781,264.5 145.3844,264.7813 Q144.8063,265.0625 144.3531,265.6875 Q143.9,266.3125 143.9,267.1719 L143.9,268.0938 Q143.9,269.125 144.7438,269.8125 Q145.5875,270.5 147.0875,270.5 Q147.9781,270.5 148.6031,270.2969 Q148.9625,270.1875 149.3688,269.8281 Q149.6344,269.625 149.775,269.5625 Q149.9156,269.5 150.0875,269.5 Q150.4156,269.5 150.65,269.7656 Q150.9,270.0156 150.9,270.375 Q150.9,270.7188 150.5563,271.125 Q150.0563,271.7188 149.2594,272.0469 Q148.2125,272.5 146.9313,272.5 Q145.4313,272.5 144.2281,271.9063 Q143.2594,271.4375 142.5719,270.4219 Q141.9,269.4063 141.9,268.2031 L141.9,267.1094 Q141.9,265.8594 142.4938,264.7656 Q143.1031,263.6719 144.15,263.0938 Q145.2125,262.5 146.4,262.5 Q147.1188,262.5 147.7438,262.75 Q148.3688,263 148.9,263.5 Z " fill="#000000"/><text fill="#000000" font-family="sans-serif" font-size="12" lengthAdjust="spacing" textLength="55" x="161.1" y="271.9102">Dementor</text><line style="stroke:#A80036;stroke-width:1.5;" x1="132" x2="219" y1="283" y2="283"/><line style="stroke:#A80036;stroke-width:1.5;" x1="132" x2="219" y1="291" y2="291"/><ellipse cx="142" cy="302" fill="#84BE84" rx="3" ry="3" style="stroke:#038048;stroke-width:1.0;"/><text fill="#000000" font-family="sans-serif" font-size="11" lengthAdjust="spacing" textLength="63" x="151" y="306.4189">move() : void</text><!--MD5=[9109d4e6429789a63962ed8feca89472]
reverse link Enemies to Enemy--><path codeLine="20" d="M113.5,82.28 C113.5,97.67 113.5,114.66 113.5,128.73 " fill="none" id="Enemies-backto-Enemy" style="stroke:#A80036;stroke-width:1.0;"/><polygon fill="#A80036" points="113.5,69.28,109.5,75.28,113.5,81.28,117.5,75.28,113.5,69.28" style="stroke:#A80036;stroke-width:1.0;"/><!--MD5=[3b49607319a1c3263587d45e11d6020c]
reverse link Enemy to Dragon--><path codeLine="21" d="M88.46,209.47 C81.25,223.41 73.6,238.22 67.14,250.73 " fill="none" id="Enemy-backto-Dragon" style="stroke:#A80036;stroke-width:1.0;"/><polygon fill="none" points="82.46,205.84,97.85,191.28,94.89,212.26,82.46,205.84" style="stroke:#A80036;stroke-width:1.0;"/><!--MD5=[c9d5e61bf57e477ee07d208d50a48961]
reverse link Enemy to Dementor--><path codeLine="22" d="M138.54,209.47 C145.75,223.41 153.4,238.22 159.86,250.73 " fill="none" id="Enemy-backto-Dementor" style="stroke:#A80036;stroke-width:1.0;"/><polygon fill="none" points="132.11,212.26,129.15,191.28,144.54,205.84,132.11,212.26" style="stroke:#A80036;stroke-width:1.0;"/><!--MD5=[34087a84090c0811a742a14815ae2503]
@startuml
'https://plantuml.com/component-diagram


abstract class Enemy{
+ move() : void
}

class Enemies{
+ moveEnemies() : void
}

class Dragon{
+ move() : void
}

class Dementor{
+ move() : void
}

Enemies *- - Enemy
Dragon -u-|> Enemy
Dementor -u-|> Enemy

@enduml

@startuml


abstract class Enemy{
+ move() : void
}

class Enemies{
+ moveEnemies() : void
}

class Dragon{
+ move() : void
}

class Dementor{
+ move() : void
}

Enemies *- - Enemy
Dragon -u-|> Enemy
Dementor -u-|> Enemy

@enduml

PlantUML version 1.2022.0(Tue Jan 11 16:16:42 GMT 2022)
(GPL source distribution)
Java Runtime: OpenJDK Runtime Environment
JVM: OpenJDK 64-Bit Server VM
Default Encoding: Cp1252
Language: pt
Country: PT
--></g></svg>