<?xml version="1.0" encoding="UTF-8" standalone="no"?><svg xmlns="http://www.w3.org/2000/svg" xmlns:xlink="http://www.w3.org/1999/xlink" contentScriptType="application/ecmascript" contentStyleType="text/css" height="204px" preserveAspectRatio="none" style="width:216px;height:204px;background:#FFFFFF;" version="1.1" viewBox="0 0 216 204" width="216px" zoomAndPan="magnify"><defs><filter height="300%" id="f1k5bp6uttzte9" width="300%" x="-1" y="-1"><feGaussianBlur result="blurOut" stdDeviation="2.0"/><feColorMatrix in="blurOut" result="blurOut2" type="matrix" values="0 0 0 0 0 0 0 0 0 0 0 0 0 0 0 0 0 0 .4 0"/><feOffset dx="4.0" dy="4.0" in="blurOut2" result="blurOut3"/><feBlend in="SourceGraphic" in2="blurOut3" mode="normal"/></filter></defs><g><!--MD5=[80c532e980642ebbe770e7ed91e479d0]
class Enemy--><rect codeLine="4" fill="#FEFECE" filter="url(#f1k5bp6uttzte9)" height="61.8359" id="Enemy" style="stroke:#A80036;stroke-width:1.5;" width="71" x="65" y="7"/><ellipse cx="80" cy="23" fill="#A9DCDF" rx="11" ry="11" style="stroke:#A80036;stroke-width:1.0;"/><path d="M81.75,24.5 L78.4531,24.5 L78.0156,25.5 L78.0156,25.5 L78.4844,25.5 L79,26.125 L79,26.5 L79,26.875 L78.4844,27.5 L78.0156,27.5 L76.125,27.5 L75.5156,27.5 L75,26.875 L75,26.5 L75,26.125 L75.5156,25.5 L76.125,25.5 L78.4375,19.5 L77.5625,19.5 L76.5156,19.5 L76,18.875 L76,18.5 L76,18.125 L76.5156,17.5 L77.5625,17.5 L81.2344,17.5 L83.9219,25.5 L84.4844,25.5 L84.4844,25.5 L85,26.125 L85,26.5 L85,26.875 L84.4844,27.5 L83.9219,27.5 L82.0313,27.5 L81.5156,27.5 L81,26.875 L81,26.5 L81,26.125 L81.5156,25.5 L82.0313,25.5 L82.0313,25.5 L81.75,24.5 Z M81.2031,22.5 L80,18.9219 L78.9688,22.5 L81.2031,22.5 Z " fill="#000000"/><text fill="#000000" font-family="sans-serif" font-size="12" font-style="italic" lengthAdjust="spacing" textLength="39" x="94" y="27.9102">Enemy</text><line style="stroke:#A80036;stroke-width:1.5;" x1="66" x2="135" y1="39" y2="39"/><line style="stroke:#A80036;stroke-width:1.5;" x1="66" x2="135" y1="47" y2="47"/><ellipse cx="76" cy="58" fill="#84BE84" rx="3" ry="3" style="stroke:#038048;stroke-width:1.0;"/><text fill="#000000" font-family="sans-serif" font-size="11" font-style="italic" lengthAdjust="spacing" textLength="44" x="85" y="62.4189">kill() : int</text><!--MD5=[0ec5399c048466d00a31875a1c1775fc]
class Dragon--><rect codeLine="8" fill="#FEFECE" filter="url(#f1k5bp6uttzte9)" height="61.8359" id="Dragon" style="stroke:#A80036;stroke-width:1.5;" width="73" x="7" y="129"/><ellipse cx="22" cy="145" fill="#ADD1B2" rx="11" ry="11" style="stroke:#A80036;stroke-width:1.0;"/><path d="M24,141.5 Q24.2031,141 24.4375,140.75 Q24.6719,140.5 24.9375,140.5 Q25.4063,140.5 25.7031,140.7813 Q26,141.0625 26,141.7188 L26,143.2813 Q26,143.9375 25.7188,144.2188 Q25.4375,144.5 25,144.5 Q24.6094,144.5 24.3594,144.3281 Q24.1094,144.1563 24,143.7031 Q23.9531,143.3906 23.7813,143.2188 Q23.4688,142.8906 22.9063,142.7031 Q22.3438,142.5 21.7813,142.5 Q21.0781,142.5 20.4844,142.7813 Q19.9063,143.0625 19.4531,143.6875 Q19,144.3125 19,145.1719 L19,146.0938 Q19,147.125 19.8438,147.8125 Q20.6875,148.5 22.1875,148.5 Q23.0781,148.5 23.7031,148.2969 Q24.0625,148.1875 24.4688,147.8281 Q24.7344,147.625 24.875,147.5625 Q25.0156,147.5 25.1875,147.5 Q25.5156,147.5 25.75,147.7656 Q26,148.0156 26,148.375 Q26,148.7188 25.6563,149.125 Q25.1563,149.7188 24.3594,150.0469 Q23.3125,150.5 22.0313,150.5 Q20.5313,150.5 19.3281,149.9063 Q18.3594,149.4375 17.6719,148.4219 Q17,147.4063 17,146.2031 L17,145.1094 Q17,143.8594 17.5938,142.7656 Q18.2031,141.6719 19.25,141.0938 Q20.3125,140.5 21.5,140.5 Q22.2188,140.5 22.8438,140.75 Q23.4688,141 24,141.5 Z " fill="#000000"/><text fill="#000000" font-family="sans-serif" font-size="12" lengthAdjust="spacing" textLength="41" x="36" y="149.9102">Dragon</text><line style="stroke:#A80036;stroke-width:1.5;" x1="8" x2="79" y1="161" y2="161"/><line style="stroke:#A80036;stroke-width:1.5;" x1="8" x2="79" y1="169" y2="169"/><ellipse cx="18" cy="180" fill="#84BE84" rx="3" ry="3" style="stroke:#038048;stroke-width:1.0;"/><text fill="#000000" font-family="sans-serif" font-size="11" lengthAdjust="spacing" textLength="39" x="27" y="184.4189">kill() : int</text><!--MD5=[24998ffae2356b5bf0d5b2d62def9309]
class Dementor--><rect codeLine="13" fill="#FEFECE" filter="url(#f1k5bp6uttzte9)" height="61.8359" id="Dementor" style="stroke:#A80036;stroke-width:1.5;" width="87" x="115" y="129"/><ellipse cx="130" cy="145" fill="#ADD1B2" rx="11" ry="11" style="stroke:#A80036;stroke-width:1.0;"/><path d="M132,141.5 Q132.2031,141 132.4375,140.75 Q132.6719,140.5 132.9375,140.5 Q133.4063,140.5 133.7031,140.7813 Q134,141.0625 134,141.7188 L134,143.2813 Q134,143.9375 133.7188,144.2188 Q133.4375,144.5 133,144.5 Q132.6094,144.5 132.3594,144.3281 Q132.1094,144.1563 132,143.7031 Q131.9531,143.3906 131.7813,143.2188 Q131.4688,142.8906 130.9063,142.7031 Q130.3438,142.5 129.7813,142.5 Q129.0781,142.5 128.4844,142.7813 Q127.9063,143.0625 127.4531,143.6875 Q127,144.3125 127,145.1719 L127,146.0938 Q127,147.125 127.8438,147.8125 Q128.6875,148.5 130.1875,148.5 Q131.0781,148.5 131.7031,148.2969 Q132.0625,148.1875 132.4688,147.8281 Q132.7344,147.625 132.875,147.5625 Q133.0156,147.5 133.1875,147.5 Q133.5156,147.5 133.75,147.7656 Q134,148.0156 134,148.375 Q134,148.7188 133.6563,149.125 Q133.1563,149.7188 132.3594,150.0469 Q131.3125,150.5 130.0313,150.5 Q128.5313,150.5 127.3281,149.9063 Q126.3594,149.4375 125.6719,148.4219 Q125,147.4063 125,146.2031 L125,145.1094 Q125,143.8594 125.5938,142.7656 Q126.2031,141.6719 127.25,141.0938 Q128.3125,140.5 129.5,140.5 Q130.2188,140.5 130.8438,140.75 Q131.4688,141 132,141.5 Z " fill="#000000"/><text fill="#000000" font-family="sans-serif" font-size="12" lengthAdjust="spacing" textLength="55" x="144" y="149.9102">Dementor</text><line style="stroke:#A80036;stroke-width:1.5;" x1="116" x2="201" y1="161" y2="161"/><line style="stroke:#A80036;stroke-width:1.5;" x1="116" x2="201" y1="169" y2="169"/><ellipse cx="126" cy="180" fill="#84BE84" rx="3" ry="3" style="stroke:#038048;stroke-width:1.0;"/><text fill="#000000" font-family="sans-serif" font-size="11" lengthAdjust="spacing" textLength="39" x="135" y="184.4189">kill() : int</text><!--MD5=[3b49607319a1c3263587d45e11d6020c]
reverse link Enemy to Dragon--><path codeLine="17" d="M77.48,87.47 C70.85,101.41 63.82,116.22 57.88,128.73 " fill="none" id="Enemy-backto-Dragon" style="stroke:#A80036;stroke-width:1.0;"/><polygon fill="none" points="71.21,84.34,86.12,69.28,83.86,90.35,71.21,84.34" style="stroke:#A80036;stroke-width:1.0;"/><!--MD5=[c9d5e61bf57e477ee07d208d50a48961]
reverse link Enemy to Dementor--><path codeLine="18" d="M123.93,87.47 C130.67,101.41 137.82,116.22 143.87,128.73 " fill="none" id="Enemy-backto-Dementor" style="stroke:#A80036;stroke-width:1.0;"/><polygon fill="none" points="117.54,90.33,115.14,69.28,130.14,84.24,117.54,90.33" style="stroke:#A80036;stroke-width:1.0;"/><!--MD5=[39f17eadadfa85d78c5e91d0f0cd686e]
@startuml
'https://plantuml.com/component-diagram


abstract class Enemy{
{abstract} + kill() : int
}

class Dragon{
+ kill() : int
}


class Dementor{
+ kill() : int
}

Dragon -u-|> Enemy
Dementor -u-|> Enemy

@enduml

@startuml


abstract class Enemy{
{abstract} + kill() : int
}

class Dragon{
+ kill() : int
}


class Dementor{
+ kill() : int
}

Dragon -u-|> Enemy
Dementor -u-|> Enemy

@enduml

PlantUML version 1.2022.0(Tue Jan 11 16:16:42 GMT 2022)
(GPL source distribution)
Java Runtime: OpenJDK Runtime Environment
JVM: OpenJDK 64-Bit Server VM
Default Encoding: Cp1252
Language: pt
Country: PT
--></g></svg>