<?xml version="1.0" encoding="UTF-8" standalone="no"?><svg xmlns="http://www.w3.org/2000/svg" xmlns:xlink="http://www.w3.org/1999/xlink" contentScriptType="application/ecmascript" contentStyleType="text/css" height="173px" preserveAspectRatio="none" style="width:270px;height:173px;background:#FFFFFF;" version="1.1" viewBox="0 0 270 173" width="270px" zoomAndPan="magnify"><defs><filter height="300%" id="f14yqy2pp9ds59" width="300%" x="-1" y="-1"><feGaussianBlur result="blurOut" stdDeviation="2.0"/><feColorMatrix in="blurOut" result="blurOut2" type="matrix" values="0 0 0 0 0 0 0 0 0 0 0 0 0 0 0 0 0 0 .4 0"/><feOffset dx="4.0" dy="4.0" in="blurOut2" result="blurOut3"/><feBlend in="SourceGraphic" in2="blurOut3" mode="normal"/></filter></defs><g><!--MD5=[d98cb1d0eeb2b90d1ef52cfc0fcf4fea]
entity Model--><polygon fill="#FEFECE" filter="url(#f14yqy2pp9ds59)" points="16,6.8564,78,6.8564,85,30.4658,102,30.4658,102,47.4658,16,47.4658,16,6.8564" style="stroke:#000000;stroke-width:1.5;"/><line style="stroke:#000000;stroke-width:1.5;" x1="16" x2="85" y1="30.4658" y2="30.4658"/><text fill="#000000" font-family="sans-serif" font-size="14" font-weight="bold" lengthAdjust="spacing" textLength="44" x="26" y="24.3896">Model</text><!--MD5=[854490cbfb8eedee4432d73740ee6d75]
entity View--><polygon fill="#FEFECE" filter="url(#f14yqy2pp9ds59)" points="178.5,6.8564,229.5,6.8564,236.5,30.4658,253.5,30.4658,253.5,47.4658,178.5,47.4658,178.5,6.8564" style="stroke:#000000;stroke-width:1.5;"/><line style="stroke:#000000;stroke-width:1.5;" x1="178.5" x2="236.5" y1="30.4658" y2="30.4658"/><text fill="#000000" font-family="sans-serif" font-size="14" font-weight="bold" lengthAdjust="spacing" textLength="33" x="188.5" y="24.3896">View</text><!--MD5=[f855680bc6c989572ebb25245d27968d]
entity Controller--><polygon fill="#FEFECE" filter="url(#f14yqy2pp9ds59)" points="96.5,125.8564,185.5,125.8564,192.5,149.4658,209.5,149.4658,209.5,166.4658,96.5,166.4658,96.5,125.8564" style="stroke:#000000;stroke-width:1.5;"/><line style="stroke:#000000;stroke-width:1.5;" x1="96.5" x2="192.5" y1="149.4658" y2="149.4658"/><text fill="#000000" font-family="sans-serif" font-size="14" font-weight="bold" lengthAdjust="spacing" textLength="71" x="106.5" y="143.3896">Controller</text><!--MD5=[7a25e1c0cf9f57ccf31195bd84e79339]
link Controller to Model--><path d="M114.12,125.8364 C101.73,117.9864 88.94,107.9064 80,95.8564 C70.77,83.4164 65.54,66.8264 62.6,53.2064 " fill="none" id="Controller-to-Model" style="stroke:#A80036;stroke-width:1.0;"/><polygon fill="#A80036" points="61.55,47.9664,59.3766,57.5725,62.5223,52.871,67.2238,56.0168,61.55,47.9664" style="stroke:#A80036;stroke-width:1.0;"/><text fill="#000000" font-family="sans-serif" font-size="13" lengthAdjust="spacing" textLength="52" x="81" y="92.3516">Manipula</text><!--MD5=[01a2e04289eefa46970f9de88ad0aba9]
link Controller to View--><path d="M171.46,125.8064 C178.92,117.1364 187.13,106.4964 193,95.8564 C200.39,82.4564 206.01,66.2664 209.84,53.0964 " fill="none" id="Controller-to-View" style="stroke:#A80036;stroke-width:1.0;"/><polygon fill="#A80036" points="211.27,48.0264,204.9722,55.5986,209.9096,52.8378,212.6705,57.7752,211.27,48.0264" style="stroke:#A80036;stroke-width:1.0;"/><text fill="#000000" font-family="sans-serif" font-size="13" lengthAdjust="spacing" textLength="58" x="203" y="92.3516">Renderiza</text><!--MD5=[57070e04af1ab79c5a79c6aefe469b18]
link View to Controller--><path d="M178.43,45.6764 C165.76,53.5664 153.05,64.2464 146,77.8564 C139.26,90.8764 140.73,107.1964 144.02,120.5264 " fill="none" id="View-to-Controller" style="stroke:#A80036;stroke-width:1.0;"/><polygon fill="#A80036" points="145.41,125.6664,146.9059,115.9318,144.0968,120.842,139.1867,118.0329,145.41,125.6664" style="stroke:#A80036;stroke-width:1.0;"/><text fill="#000000" font-family="sans-serif" font-size="13" lengthAdjust="spacing" textLength="37" x="147" y="92.3516">Ações</text><!--MD5=[d78c2cb768182be29976ff116d2133f8]
reverse link Model to View--><path d="M107.43,27.3564 C130.28,27.3564 157.14,27.3564 178.43,27.3564 " fill="none" id="Model-backto-View" style="stroke:#A80036;stroke-width:1.0;"/><polygon fill="#A80036" points="102.32,27.3564,111.32,31.3564,107.32,27.3564,111.32,23.3564,102.32,27.3564" style="stroke:#A80036;stroke-width:1.0;"/><text fill="#000000" font-family="sans-serif" font-size="13" lengthAdjust="spacing" textLength="40" x="120.25" y="20.8516">Mostra</text><!--MD5=[6e754dba02ebbcac94b5490bcda917dc]
@startuml
'https://plantuml.com/class-diagram

hide circle
hide methods
hide empty fields

package Model
package View
package Controller

Controller - -> Model : "Manipula"
Controller - -> View : "Renderiza"
View - -> Controller : "Ações"
View -l-> Model : "Mostra"

@enduml

@startuml

hide circle
hide methods
hide empty fields

package Model
package View
package Controller

Controller - -> Model : "Manipula"
Controller - -> View : "Renderiza"
View - -> Controller : "Ações"
View -l-> Model : "Mostra"

@enduml

PlantUML version 1.2021.16(Wed Dec 08 17:25:22 GMT 2021)
(GPL source distribution)
Java Runtime: OpenJDK Runtime Environment
JVM: OpenJDK 64-Bit Server VM
Default Encoding: Cp1252
Language: pt
Country: PT
--></g></svg>