<?xml version="1.0" encoding="UTF-8" standalone="no"?><svg xmlns="http://www.w3.org/2000/svg" xmlns:xlink="http://www.w3.org/1999/xlink" contentScriptType="application/ecmascript" contentStyleType="text/css" height="363.3px" preserveAspectRatio="none" style="width:567px;height:363px;background:#FFFFFF;" version="1.1" viewBox="0 0 567 363" width="567px" zoomAndPan="magnify"><defs><filter height="300%" id="f14yqy2pp9ds59" width="300%" x="-1" y="-1"><feGaussianBlur result="blurOut" stdDeviation="4.2"/><feColorMatrix in="blurOut" result="blurOut2" type="matrix" values="0 0 0 0 0 0 0 0 0 0 0 0 0 0 0 0 0 0 .4 0"/><feOffset dx="8.4" dy="8.4" in="blurOut2" result="blurOut3"/><feBlend in="SourceGraphic" in2="blurOut3" mode="normal"/></filter></defs><g><!--MD5=[d98cb1d0eeb2b90d1ef52cfc0fcf4fea]
entity Model--><polygon fill="#FEFECE" filter="url(#f14yqy2pp9ds59)" points="33.6,14.3985,163.8,14.3985,178.5,63.9782,214.2,63.9782,214.2,99.6782,33.6,99.6782,33.6,14.3985" style="stroke:#000000;stroke-width:3.1500000000000004;"/><line style="stroke:#000000;stroke-width:3.1500000000000004;" x1="33.6" x2="178.5" y1="63.9782" y2="63.9782"/><text fill="#000000" font-family="sans-serif" font-size="29.4" font-weight="bold" lengthAdjust="spacing" textLength="92.4" x="54.6" y="51.2183">Model</text><!--MD5=[854490cbfb8eedee4432d73740ee6d75]
entity View--><polygon fill="#FEFECE" filter="url(#f14yqy2pp9ds59)" points="374.85,14.3985,481.95,14.3985,496.65,63.9782,532.35,63.9782,532.35,99.6782,374.85,99.6782,374.85,14.3985" style="stroke:#000000;stroke-width:3.1500000000000004;"/><line style="stroke:#000000;stroke-width:3.1500000000000004;" x1="374.85" x2="496.65" y1="63.9782" y2="63.9782"/><text fill="#000000" font-family="sans-serif" font-size="29.4" font-weight="bold" lengthAdjust="spacing" textLength="69.3" x="395.85" y="51.2183">View</text><!--MD5=[f855680bc6c989572ebb25245d27968d]
entity Controller--><polygon fill="#FEFECE" filter="url(#f14yqy2pp9ds59)" points="202.65,264.2985,389.55,264.2985,404.25,313.8782,439.95,313.8782,439.95,349.5782,202.65,349.5782,202.65,264.2985" style="stroke:#000000;stroke-width:3.1500000000000004;"/><line style="stroke:#000000;stroke-width:3.1500000000000004;" x1="202.65" x2="404.25" y1="313.8782" y2="313.8782"/><text fill="#000000" font-family="sans-serif" font-size="29.4" font-weight="bold" lengthAdjust="spacing" textLength="149.1" x="223.65" y="301.1183">Controller</text><!--MD5=[7a25e1c0cf9f57ccf31195bd84e79339]
link Controller to Model--><path d="M239.652,264.2565 C213.633,247.7715 186.774,226.6035 168,201.2985 C148.617,175.1745 137.634,140.3355 131.46,111.7335 " fill="none" id="Controller-to-Model" style="stroke:#A80036;stroke-width:2.1;"/><polygon fill="#A80036" points="129.255,100.7295,124.6908,120.9022,131.2969,111.0291,141.17,117.6352,129.255,100.7295" style="stroke:#A80036;stroke-width:2.1;"/><text fill="#000000" font-family="sans-serif" font-size="27.3" lengthAdjust="spacing" textLength="109.2" x="170.1" y="193.9383">Manipula</text><!--MD5=[01a2e04289eefa46970f9de88ad0aba9]
link Controller to View--><path d="M360.066,264.1935 C375.732,245.9865 392.973,223.6425 405.3,201.2985 C420.819,173.1585 432.621,139.1595 440.664,111.5025 " fill="none" id="Controller-to-View" style="stroke:#A80036;stroke-width:2.1;"/><polygon fill="#A80036" points="443.667,100.8555,430.4417,116.7572,440.8102,110.9594,446.608,121.328,443.667,100.8555" style="stroke:#A80036;stroke-width:2.1;"/><text fill="#000000" font-family="sans-serif" font-size="27.3" lengthAdjust="spacing" textLength="121.8" x="426.3" y="193.9383">Renderiza</text><!--MD5=[57070e04af1ab79c5a79c6aefe469b18]
link View to Controller--><path d="M374.703,95.9205 C348.096,112.4895 321.405,134.9175 306.6,163.4985 C292.446,190.8405 295.533,225.1125 302.442,253.1055 " fill="none" id="View-to-Controller" style="stroke:#A80036;stroke-width:2.1;"/><polygon fill="#A80036" points="305.361,263.8995,308.5023,243.4569,302.6033,253.7681,292.2921,247.8691,305.361,263.8995" style="stroke:#A80036;stroke-width:2.1;"/><text fill="#000000" font-family="sans-serif" font-size="27.3" lengthAdjust="spacing" textLength="77.7" x="308.7" y="193.9383">Ações</text><!--MD5=[d78c2cb768182be29976ff116d2133f8]
reverse link Model to View--><path d="M225.603,57.4485 C273.588,57.4485 329.994,57.4485 374.703,57.4485 " fill="none" id="Model-backto-View" style="stroke:#A80036;stroke-width:2.1;"/><polygon fill="#A80036" points="214.872,57.4485,233.772,65.8485,225.372,57.4485,233.772,49.0485,214.872,57.4485" style="stroke:#A80036;stroke-width:2.1;"/><text fill="#000000" font-family="sans-serif" font-size="27.3" lengthAdjust="spacing" textLength="84" x="252.525" y="43.7883">Mostra</text><!--MD5=[6e754dba02ebbcac94b5490bcda917dc]
@startuml
'https://plantuml.com/class-diagram

hide circle
hide methods
hide empty fields

package Model
package View
package Controller

Controller - -> Model : "Manipula"
Controller - -> View : "Renderiza"
View - -> Controller : "Ações"
View -l-> Model : "Mostra"

@enduml

@startuml

hide circle
hide methods
hide empty fields

package Model
package View
package Controller

Controller - -> Model : "Manipula"
Controller - -> View : "Renderiza"
View - -> Controller : "Ações"
View -l-> Model : "Mostra"

@enduml

PlantUML version 1.2021.16(Wed Dec 08 17:25:22 GMT 2021)
(GPL source distribution)
Java Runtime: OpenJDK Runtime Environment
JVM: OpenJDK 64-Bit Server VM
Default Encoding: Cp1252
Language: pt
Country: PT
--></g></svg>