<?xml version="1.0" encoding="UTF-8" standalone="no"?><svg xmlns="http://www.w3.org/2000/svg" xmlns:xlink="http://www.w3.org/1999/xlink" contentScriptType="application/ecmascript" contentStyleType="text/css" height="326px" preserveAspectRatio="none" style="width:640px;height:326px;background:#FFFFFF;" version="1.1" viewBox="0 0 640 326" width="640px" zoomAndPan="magnify"><defs><filter height="300%" id="fxk8mom37khi0" width="300%" x="-1" y="-1"><feGaussianBlur result="blurOut" stdDeviation="2.0"/><feColorMatrix in="blurOut" result="blurOut2" type="matrix" values="0 0 0 0 0 0 0 0 0 0 0 0 0 0 0 0 0 0 .4 0"/><feOffset dx="4.0" dy="4.0" in="blurOut2" result="blurOut3"/><feBlend in="SourceGraphic" in2="blurOut3" mode="normal"/></filter></defs><g><!--MD5=[48e88c162c5505361c629eb6ff3812a8]
class GameState--><rect codeLine="5" fill="#FEFECE" filter="url(#fxk8mom37khi0)" height="61.8359" id="GameState" style="stroke:#A80036;stroke-width:1.5;" width="139" x="221" y="7"/><ellipse cx="256.25" cy="23" fill="#ADD1B2" rx="11" ry="11" style="stroke:#A80036;stroke-width:1.0;"/><path d="M258.25,19.5 Q258.4531,19 258.6875,18.75 Q258.9219,18.5 259.1875,18.5 Q259.6563,18.5 259.9531,18.7813 Q260.25,19.0625 260.25,19.7188 L260.25,21.2813 Q260.25,21.9375 259.9688,22.2188 Q259.6875,22.5 259.25,22.5 Q258.8594,22.5 258.6094,22.3281 Q258.3594,22.1563 258.25,21.7031 Q258.2031,21.3906 258.0313,21.2188 Q257.7188,20.8906 257.1563,20.7031 Q256.5938,20.5 256.0313,20.5 Q255.3281,20.5 254.7344,20.7813 Q254.1563,21.0625 253.7031,21.6875 Q253.25,22.3125 253.25,23.1719 L253.25,24.0938 Q253.25,25.125 254.0938,25.8125 Q254.9375,26.5 256.4375,26.5 Q257.3281,26.5 257.9531,26.2969 Q258.3125,26.1875 258.7188,25.8281 Q258.9844,25.625 259.125,25.5625 Q259.2656,25.5 259.4375,25.5 Q259.7656,25.5 260,25.7656 Q260.25,26.0156 260.25,26.375 Q260.25,26.7188 259.9063,27.125 Q259.4063,27.7188 258.6094,28.0469 Q257.5625,28.5 256.2813,28.5 Q254.7813,28.5 253.5781,27.9063 Q252.6094,27.4375 251.9219,26.4219 Q251.25,25.4063 251.25,24.2031 L251.25,23.1094 Q251.25,21.8594 251.8438,20.7656 Q252.4531,19.6719 253.5,19.0938 Q254.5625,18.5 255.75,18.5 Q256.4688,18.5 257.0938,18.75 Q257.7188,19 258.25,19.5 Z " fill="#000000"/><text fill="#000000" font-family="sans-serif" font-size="12" lengthAdjust="spacing" textLength="62" x="274.75" y="27.9102">GameState</text><line style="stroke:#A80036;stroke-width:1.5;" x1="222" x2="359" y1="39" y2="39"/><line style="stroke:#A80036;stroke-width:1.5;" x1="222" x2="359" y1="47" y2="47"/><ellipse cx="232" cy="58" fill="#84BE84" rx="3" ry="3" style="stroke:#038048;stroke-width:1.0;"/><text fill="#000000" font-family="sans-serif" font-size="11" lengthAdjust="spacing" textLength="113" x="241" y="62.4189">MOVE : moveEnemies()</text><!--MD5=[666ab4d123c8a4db535fefed801ea066]
class Hero--><rect codeLine="11" fill="#FEFECE" filter="url(#fxk8mom37khi0)" height="61.8359" id="Hero" style="stroke:#A80036;stroke-width:1.5;" width="99" x="241" y="129"/><ellipse cx="274" cy="145" fill="#ADD1B2" rx="11" ry="11" style="stroke:#A80036;stroke-width:1.0;"/><path d="M276,141.5 Q276.2031,141 276.4375,140.75 Q276.6719,140.5 276.9375,140.5 Q277.4063,140.5 277.7031,140.7813 Q278,141.0625 278,141.7188 L278,143.2813 Q278,143.9375 277.7188,144.2188 Q277.4375,144.5 277,144.5 Q276.6094,144.5 276.3594,144.3281 Q276.1094,144.1563 276,143.7031 Q275.9531,143.3906 275.7813,143.2188 Q275.4688,142.8906 274.9063,142.7031 Q274.3438,142.5 273.7813,142.5 Q273.0781,142.5 272.4844,142.7813 Q271.9063,143.0625 271.4531,143.6875 Q271,144.3125 271,145.1719 L271,146.0938 Q271,147.125 271.8438,147.8125 Q272.6875,148.5 274.1875,148.5 Q275.0781,148.5 275.7031,148.2969 Q276.0625,148.1875 276.4688,147.8281 Q276.7344,147.625 276.875,147.5625 Q277.0156,147.5 277.1875,147.5 Q277.5156,147.5 277.75,147.7656 Q278,148.0156 278,148.375 Q278,148.7188 277.6563,149.125 Q277.1563,149.7188 276.3594,150.0469 Q275.3125,150.5 274.0313,150.5 Q272.5313,150.5 271.3281,149.9063 Q270.3594,149.4375 269.6719,148.4219 Q269,147.4063 269,146.2031 L269,145.1094 Q269,143.8594 269.5938,142.7656 Q270.2031,141.6719 271.25,141.0938 Q272.3125,140.5 273.5,140.5 Q274.2188,140.5 274.8438,140.75 Q275.4688,141 276,141.5 Z " fill="#000000"/><text fill="#000000" font-family="sans-serif" font-size="12" lengthAdjust="spacing" textLength="27" x="292" y="149.9102">Hero</text><line style="stroke:#A80036;stroke-width:1.5;" x1="242" x2="339" y1="161" y2="161"/><line style="stroke:#A80036;stroke-width:1.5;" x1="242" x2="339" y1="169" y2="169"/><ellipse cx="252" cy="180" fill="#84BE84" rx="3" ry="3" style="stroke:#038048;stroke-width:1.0;"/><text fill="#000000" font-family="sans-serif" font-size="11" lengthAdjust="spacing" textLength="73" x="261" y="184.4189">MOVE : move()</text><!--MD5=[d5c76b986b2f885f478a45b3e2a835e6]
class Shooter--><rect codeLine="18" fill="#FEFECE" filter="url(#fxk8mom37khi0)" height="61.8359" id="Shooter" style="stroke:#A80036;stroke-width:1.5;" width="99" x="174" y="251"/><ellipse cx="199.8" cy="267" fill="#ADD1B2" rx="11" ry="11" style="stroke:#A80036;stroke-width:1.0;"/><path d="M201.8,263.5 Q202.0031,263 202.2375,262.75 Q202.4719,262.5 202.7375,262.5 Q203.2063,262.5 203.5031,262.7813 Q203.8,263.0625 203.8,263.7188 L203.8,265.2813 Q203.8,265.9375 203.5188,266.2188 Q203.2375,266.5 202.8,266.5 Q202.4094,266.5 202.1594,266.3281 Q201.9094,266.1563 201.8,265.7031 Q201.7531,265.3906 201.5813,265.2188 Q201.2688,264.8906 200.7063,264.7031 Q200.1438,264.5 199.5813,264.5 Q198.8781,264.5 198.2844,264.7813 Q197.7063,265.0625 197.2531,265.6875 Q196.8,266.3125 196.8,267.1719 L196.8,268.0938 Q196.8,269.125 197.6438,269.8125 Q198.4875,270.5 199.9875,270.5 Q200.8781,270.5 201.5031,270.2969 Q201.8625,270.1875 202.2688,269.8281 Q202.5344,269.625 202.675,269.5625 Q202.8156,269.5 202.9875,269.5 Q203.3156,269.5 203.55,269.7656 Q203.8,270.0156 203.8,270.375 Q203.8,270.7188 203.4563,271.125 Q202.9563,271.7188 202.1594,272.0469 Q201.1125,272.5 199.8313,272.5 Q198.3313,272.5 197.1281,271.9063 Q196.1594,271.4375 195.4719,270.4219 Q194.8,269.4063 194.8,268.2031 L194.8,267.1094 Q194.8,265.8594 195.3938,264.7656 Q196.0031,263.6719 197.05,263.0938 Q198.1125,262.5 199.3,262.5 Q200.0188,262.5 200.6438,262.75 Q201.2688,263 201.8,263.5 Z " fill="#000000"/><text fill="#000000" font-family="sans-serif" font-size="12" lengthAdjust="spacing" textLength="43" x="216.2" y="271.9102">Shooter</text><line style="stroke:#A80036;stroke-width:1.5;" x1="175" x2="272" y1="283" y2="283"/><line style="stroke:#A80036;stroke-width:1.5;" x1="175" x2="272" y1="291" y2="291"/><ellipse cx="185" cy="302" fill="#84BE84" rx="3" ry="3" style="stroke:#038048;stroke-width:1.0;"/><text fill="#000000" font-family="sans-serif" font-size="11" lengthAdjust="spacing" textLength="73" x="194" y="306.4189">MOVE : move()</text><!--MD5=[612ba1bd76ba2e43180f8a4c173689eb]
class Enemies--><rect codeLine="24" fill="#FEFECE" filter="url(#fxk8mom37khi0)" height="61.8359" id="Enemies" style="stroke:#A80036;stroke-width:1.5;" width="99" x="308" y="251"/><ellipse cx="330.65" cy="267" fill="#ADD1B2" rx="11" ry="11" style="stroke:#A80036;stroke-width:1.0;"/><path d="M332.65,263.5 Q332.8531,263 333.0875,262.75 Q333.3219,262.5 333.5875,262.5 Q334.0563,262.5 334.3531,262.7813 Q334.65,263.0625 334.65,263.7188 L334.65,265.2813 Q334.65,265.9375 334.3688,266.2188 Q334.0875,266.5 333.65,266.5 Q333.2594,266.5 333.0094,266.3281 Q332.7594,266.1563 332.65,265.7031 Q332.6031,265.3906 332.4313,265.2188 Q332.1188,264.8906 331.5563,264.7031 Q330.9938,264.5 330.4313,264.5 Q329.7281,264.5 329.1344,264.7813 Q328.5563,265.0625 328.1031,265.6875 Q327.65,266.3125 327.65,267.1719 L327.65,268.0938 Q327.65,269.125 328.4938,269.8125 Q329.3375,270.5 330.8375,270.5 Q331.7281,270.5 332.3531,270.2969 Q332.7125,270.1875 333.1188,269.8281 Q333.3844,269.625 333.525,269.5625 Q333.6656,269.5 333.8375,269.5 Q334.1656,269.5 334.4,269.7656 Q334.65,270.0156 334.65,270.375 Q334.65,270.7188 334.3063,271.125 Q333.8063,271.7188 333.0094,272.0469 Q331.9625,272.5 330.6813,272.5 Q329.1813,272.5 327.9781,271.9063 Q327.0094,271.4375 326.3219,270.4219 Q325.65,269.4063 325.65,268.2031 L325.65,267.1094 Q325.65,265.8594 326.2438,264.7656 Q326.8531,263.6719 327.9,263.0938 Q328.9625,262.5 330.15,262.5 Q330.8688,262.5 331.4938,262.75 Q332.1188,263 332.65,263.5 Z " fill="#000000"/><text fill="#000000" font-family="sans-serif" font-size="12" lengthAdjust="spacing" textLength="50" x="346.35" y="271.9102">Enemies</text><line style="stroke:#A80036;stroke-width:1.5;" x1="309" x2="406" y1="283" y2="283"/><line style="stroke:#A80036;stroke-width:1.5;" x1="309" x2="406" y1="291" y2="291"/><ellipse cx="319" cy="302" fill="#84BE84" rx="3" ry="3" style="stroke:#038048;stroke-width:1.0;"/><text fill="#000000" font-family="sans-serif" font-size="11" lengthAdjust="spacing" textLength="73" x="328" y="306.4189">MOVE : move()</text><path d="M6,269 L6,295.3516 A0,0 0 0 0 6,295.3516 L139,295.3516 A0,0 0 0 0 139,295.3516 L139,287 L173.75,282 L139,279 L139,279 L129,269 L6,269 A0,0 0 0 0 6,269 " fill="#FBFB77" filter="url(#fxk8mom37khi0)" style="stroke:#A80036;stroke-width:1.0;"/><path d="M129,269 L129,279 L139,279 L129,269 " fill="#FBFB77" style="stroke:#A80036;stroke-width:1.0;"/><text fill="#000000" font-family="sans-serif" font-size="13" lengthAdjust="spacing" textLength="112" x="12" y="287.4951">Quanto leva um tiro</text><path d="M442,269 L442,278 L407.14,282 L442,286 L442,295.3516 A0,0 0 0 0 442,295.3516 L631,295.3516 A0,0 0 0 0 631,295.3516 L631,279 L621,269 L442,269 A0,0 0 0 0 442,269 " fill="#FBFB77" filter="url(#fxk8mom37khi0)" style="stroke:#A80036;stroke-width:1.0;"/><path d="M621,269 L621,279 L631,279 L621,269 " fill="#FBFB77" style="stroke:#A80036;stroke-width:1.0;"/><text fill="#000000" font-family="sans-serif" font-size="13" lengthAdjust="spacing" textLength="168" x="448" y="287.4951">Quanto vai contra um inimigo</text><!--MD5=[5845a50cbdba141483f0e86b3e4a92c5]
link GameState to Hero--><path codeLine="9" d="M290.5,69.28 C290.5,87.47 290.5,110.54 290.5,128.73 " fill="none" id="GameState-Hero" style="stroke:#A80036;stroke-width:1.0;stroke-dasharray:7.0,7.0;"/><!--MD5=[323da17bf77ef2c8e2d919452f88d1b2]
link Hero to Shooter--><path codeLine="15" d="M273.59,191.28 C263.44,209.47 250.56,232.54 240.4,250.73 " fill="none" id="Hero-Shooter" style="stroke:#A80036;stroke-width:1.0;stroke-dasharray:7.0,7.0;"/><!--MD5=[89e90f80b45d6f739af16baccb810663]
link Hero to Enemies--><path codeLine="16" d="M307.41,191.28 C317.56,209.47 330.44,232.54 340.6,250.73 " fill="none" id="Hero-Enemies" style="stroke:#A80036;stroke-width:1.0;stroke-dasharray:7.0,7.0;"/><!--MD5=[861475c23b8eaa90b60bb7fa773a1a26]
@startuml
'https://plantuml.com/component-diagram



class GameState{
+ MOVE : moveEnemies()
}

GameState .. Hero

class Hero{
+ MOVE : move()
}

Hero .. Shooter
Hero .. Enemies

class Shooter{
+ MOVE : move()
}

note left of Shooter: Quanto leva um tiro

class Enemies{
+ MOVE : move()
}

note right of Enemies: Quanto vai contra um inimigo

@enduml

@startuml



class GameState{
+ MOVE : moveEnemies()
}

GameState .. Hero

class Hero{
+ MOVE : move()
}

Hero .. Shooter
Hero .. Enemies

class Shooter{
+ MOVE : move()
}

note left of Shooter: Quanto leva um tiro

class Enemies{
+ MOVE : move()
}

note right of Enemies: Quanto vai contra um inimigo

@enduml

PlantUML version 1.2022.0(Tue Jan 11 16:16:42 GMT 2022)
(GPL source distribution)
Java Runtime: OpenJDK Runtime Environment
JVM: OpenJDK 64-Bit Server VM
Default Encoding: Cp1252
Language: en
Country: GB
--></g></svg>