<?xml version="1.0" encoding="UTF-8" standalone="no"?><svg xmlns="http://www.w3.org/2000/svg" xmlns:xlink="http://www.w3.org/1999/xlink" contentScriptType="application/ecmascript" contentStyleType="text/css" height="326px" preserveAspectRatio="none" style="width:691px;height:326px;background:#FFFFFF;" version="1.1" viewBox="0 0 691 326" width="691px" zoomAndPan="magnify"><defs><filter height="300%" id="f1a4oi3jnqwo8y" width="300%" x="-1" y="-1"><feGaussianBlur result="blurOut" stdDeviation="2.0"/><feColorMatrix in="blurOut" result="blurOut2" type="matrix" values="0 0 0 0 0 0 0 0 0 0 0 0 0 0 0 0 0 0 .4 0"/><feOffset dx="4.0" dy="4.0" in="blurOut2" result="blurOut3"/><feBlend in="SourceGraphic" in2="blurOut3" mode="normal"/></filter></defs><g><!--MD5=[48e88c162c5505361c629eb6ff3812a8]
class GameState--><rect codeLine="5" fill="#FEFECE" filter="url(#f1a4oi3jnqwo8y)" height="48" id="GameState" style="stroke:#A80036;stroke-width:1.5;" width="94" x="285.5" y="7"/><ellipse cx="300.5" cy="23" fill="#ADD1B2" rx="11" ry="11" style="stroke:#A80036;stroke-width:1.0;"/><path d="M302.5,19.5 Q302.7031,19 302.9375,18.75 Q303.1719,18.5 303.4375,18.5 Q303.9063,18.5 304.2031,18.7813 Q304.5,19.0625 304.5,19.7188 L304.5,21.2813 Q304.5,21.9375 304.2188,22.2188 Q303.9375,22.5 303.5,22.5 Q303.1094,22.5 302.8594,22.3281 Q302.6094,22.1563 302.5,21.7031 Q302.4531,21.3906 302.2813,21.2188 Q301.9688,20.8906 301.4063,20.7031 Q300.8438,20.5 300.2813,20.5 Q299.5781,20.5 298.9844,20.7813 Q298.4063,21.0625 297.9531,21.6875 Q297.5,22.3125 297.5,23.1719 L297.5,24.0938 Q297.5,25.125 298.3438,25.8125 Q299.1875,26.5 300.6875,26.5 Q301.5781,26.5 302.2031,26.2969 Q302.5625,26.1875 302.9688,25.8281 Q303.2344,25.625 303.375,25.5625 Q303.5156,25.5 303.6875,25.5 Q304.0156,25.5 304.25,25.7656 Q304.5,26.0156 304.5,26.375 Q304.5,26.7188 304.1563,27.125 Q303.6563,27.7188 302.8594,28.0469 Q301.8125,28.5 300.5313,28.5 Q299.0313,28.5 297.8281,27.9063 Q296.8594,27.4375 296.1719,26.4219 Q295.5,25.4063 295.5,24.2031 L295.5,23.1094 Q295.5,21.8594 296.0938,20.7656 Q296.7031,19.6719 297.75,19.0938 Q298.8125,18.5 300,18.5 Q300.7188,18.5 301.3438,18.75 Q301.9688,19 302.5,19.5 Z " fill="#000000"/><text fill="#000000" font-family="sans-serif" font-size="12" lengthAdjust="spacing" textLength="62" x="314.5" y="27.9102">GameState</text><line style="stroke:#A80036;stroke-width:1.5;" x1="286.5" x2="378.5" y1="39" y2="39"/><line style="stroke:#A80036;stroke-width:1.5;" x1="286.5" x2="378.5" y1="47" y2="47"/><!--MD5=[666ab4d123c8a4db535fefed801ea066]
class Hero--><rect codeLine="9" fill="#FEFECE" filter="url(#f1a4oi3jnqwo8y)" height="61.8359" id="Hero" style="stroke:#A80036;stroke-width:1.5;" width="89" x="288" y="115"/><ellipse cx="316.5" cy="131" fill="#ADD1B2" rx="11" ry="11" style="stroke:#A80036;stroke-width:1.0;"/><path d="M318.5,127.5 Q318.7031,127 318.9375,126.75 Q319.1719,126.5 319.4375,126.5 Q319.9063,126.5 320.2031,126.7813 Q320.5,127.0625 320.5,127.7188 L320.5,129.2813 Q320.5,129.9375 320.2188,130.2188 Q319.9375,130.5 319.5,130.5 Q319.1094,130.5 318.8594,130.3281 Q318.6094,130.1563 318.5,129.7031 Q318.4531,129.3906 318.2813,129.2188 Q317.9688,128.8906 317.4063,128.7031 Q316.8438,128.5 316.2813,128.5 Q315.5781,128.5 314.9844,128.7813 Q314.4063,129.0625 313.9531,129.6875 Q313.5,130.3125 313.5,131.1719 L313.5,132.0938 Q313.5,133.125 314.3438,133.8125 Q315.1875,134.5 316.6875,134.5 Q317.5781,134.5 318.2031,134.2969 Q318.5625,134.1875 318.9688,133.8281 Q319.2344,133.625 319.375,133.5625 Q319.5156,133.5 319.6875,133.5 Q320.0156,133.5 320.25,133.7656 Q320.5,134.0156 320.5,134.375 Q320.5,134.7188 320.1563,135.125 Q319.6563,135.7188 318.8594,136.0469 Q317.8125,136.5 316.5313,136.5 Q315.0313,136.5 313.8281,135.9063 Q312.8594,135.4375 312.1719,134.4219 Q311.5,133.4063 311.5,132.2031 L311.5,131.1094 Q311.5,129.8594 312.0938,128.7656 Q312.7031,127.6719 313.75,127.0938 Q314.8125,126.5 316,126.5 Q316.7188,126.5 317.3438,126.75 Q317.9688,127 318.5,127.5 Z " fill="#000000"/><text fill="#000000" font-family="sans-serif" font-size="12" lengthAdjust="spacing" textLength="27" x="333.5" y="135.9102">Hero</text><line style="stroke:#A80036;stroke-width:1.5;" x1="289" x2="376" y1="147" y2="147"/><line style="stroke:#A80036;stroke-width:1.5;" x1="289" x2="376" y1="155" y2="155"/><ellipse cx="299" cy="166" fill="#84BE84" rx="3" ry="3" style="stroke:#038048;stroke-width:1.0;"/><text fill="#000000" font-family="sans-serif" font-size="11" lengthAdjust="spacing" textLength="63" x="308" y="170.4189">move() : void</text><!--MD5=[d5c76b986b2f885f478a45b3e2a835e6]
class Shooter--><rect codeLine="13" fill="#FEFECE" filter="url(#f1a4oi3jnqwo8y)" height="75.6719" id="Shooter" style="stroke:#A80036;stroke-width:1.5;" width="97" x="218" y="237"/><ellipse cx="242.9" cy="253" fill="#ADD1B2" rx="11" ry="11" style="stroke:#A80036;stroke-width:1.0;"/><path d="M244.9,249.5 Q245.1031,249 245.3375,248.75 Q245.5719,248.5 245.8375,248.5 Q246.3063,248.5 246.6031,248.7813 Q246.9,249.0625 246.9,249.7188 L246.9,251.2813 Q246.9,251.9375 246.6188,252.2188 Q246.3375,252.5 245.9,252.5 Q245.5094,252.5 245.2594,252.3281 Q245.0094,252.1563 244.9,251.7031 Q244.8531,251.3906 244.6813,251.2188 Q244.3688,250.8906 243.8063,250.7031 Q243.2438,250.5 242.6813,250.5 Q241.9781,250.5 241.3844,250.7813 Q240.8063,251.0625 240.3531,251.6875 Q239.9,252.3125 239.9,253.1719 L239.9,254.0938 Q239.9,255.125 240.7438,255.8125 Q241.5875,256.5 243.0875,256.5 Q243.9781,256.5 244.6031,256.2969 Q244.9625,256.1875 245.3688,255.8281 Q245.6344,255.625 245.775,255.5625 Q245.9156,255.5 246.0875,255.5 Q246.4156,255.5 246.65,255.7656 Q246.9,256.0156 246.9,256.375 Q246.9,256.7188 246.5563,257.125 Q246.0563,257.7188 245.2594,258.0469 Q244.2125,258.5 242.9313,258.5 Q241.4313,258.5 240.2281,257.9063 Q239.2594,257.4375 238.5719,256.4219 Q237.9,255.4063 237.9,254.2031 L237.9,253.1094 Q237.9,251.8594 238.4938,250.7656 Q239.1031,249.6719 240.15,249.0938 Q241.2125,248.5 242.4,248.5 Q243.1188,248.5 243.7438,248.75 Q244.3688,249 244.9,249.5 Z " fill="#000000"/><text fill="#000000" font-family="sans-serif" font-size="12" lengthAdjust="spacing" textLength="43" x="259.1" y="257.9102">Shooter</text><line style="stroke:#A80036;stroke-width:1.5;" x1="219" x2="314" y1="269" y2="269"/><line style="stroke:#A80036;stroke-width:1.5;" x1="219" x2="314" y1="277" y2="277"/><ellipse cx="229" cy="288" fill="#84BE84" rx="3" ry="3" style="stroke:#038048;stroke-width:1.0;"/><text fill="#000000" font-family="sans-serif" font-size="11" lengthAdjust="spacing" textLength="63" x="238" y="292.4189">move() : void</text><ellipse cx="229" cy="301.8359" fill="#84BE84" rx="3" ry="3" style="stroke:#038048;stroke-width:1.0;"/><text fill="#000000" font-family="sans-serif" font-size="11" lengthAdjust="spacing" textLength="71" x="238" y="306.2549">killHero() : void</text><!--MD5=[612ba1bd76ba2e43180f8a4c173689eb]
class Enemies--><rect codeLine="18" fill="#FEFECE" filter="url(#f1a4oi3jnqwo8y)" height="75.6719" id="Enemies" style="stroke:#A80036;stroke-width:1.5;" width="97" x="350" y="237"/><ellipse cx="371.75" cy="253" fill="#ADD1B2" rx="11" ry="11" style="stroke:#A80036;stroke-width:1.0;"/><path d="M373.75,249.5 Q373.9531,249 374.1875,248.75 Q374.4219,248.5 374.6875,248.5 Q375.1563,248.5 375.4531,248.7813 Q375.75,249.0625 375.75,249.7188 L375.75,251.2813 Q375.75,251.9375 375.4688,252.2188 Q375.1875,252.5 374.75,252.5 Q374.3594,252.5 374.1094,252.3281 Q373.8594,252.1563 373.75,251.7031 Q373.7031,251.3906 373.5313,251.2188 Q373.2188,250.8906 372.6563,250.7031 Q372.0938,250.5 371.5313,250.5 Q370.8281,250.5 370.2344,250.7813 Q369.6563,251.0625 369.2031,251.6875 Q368.75,252.3125 368.75,253.1719 L368.75,254.0938 Q368.75,255.125 369.5938,255.8125 Q370.4375,256.5 371.9375,256.5 Q372.8281,256.5 373.4531,256.2969 Q373.8125,256.1875 374.2188,255.8281 Q374.4844,255.625 374.625,255.5625 Q374.7656,255.5 374.9375,255.5 Q375.2656,255.5 375.5,255.7656 Q375.75,256.0156 375.75,256.375 Q375.75,256.7188 375.4063,257.125 Q374.9063,257.7188 374.1094,258.0469 Q373.0625,258.5 371.7813,258.5 Q370.2813,258.5 369.0781,257.9063 Q368.1094,257.4375 367.4219,256.4219 Q366.75,255.4063 366.75,254.2031 L366.75,253.1094 Q366.75,251.8594 367.3438,250.7656 Q367.9531,249.6719 369,249.0938 Q370.0625,248.5 371.25,248.5 Q371.9688,248.5 372.5938,248.75 Q373.2188,249 373.75,249.5 Z " fill="#000000"/><text fill="#000000" font-family="sans-serif" font-size="12" lengthAdjust="spacing" textLength="50" x="387.25" y="257.9102">Enemies</text><line style="stroke:#A80036;stroke-width:1.5;" x1="351" x2="446" y1="269" y2="269"/><line style="stroke:#A80036;stroke-width:1.5;" x1="351" x2="446" y1="277" y2="277"/><ellipse cx="361" cy="288" fill="#84BE84" rx="3" ry="3" style="stroke:#038048;stroke-width:1.0;"/><text fill="#000000" font-family="sans-serif" font-size="11" lengthAdjust="spacing" textLength="63" x="370" y="292.4189">move() : void</text><ellipse cx="361" cy="301.8359" fill="#84BE84" rx="3" ry="3" style="stroke:#038048;stroke-width:1.0;"/><text fill="#000000" font-family="sans-serif" font-size="11" lengthAdjust="spacing" textLength="71" x="370" y="306.2549">killHero() : void</text><path d="M6,262 L6,288.3516 A0,0 0 0 0 6,288.3516 L183,288.3516 A0,0 0 0 0 183,288.3516 L183,280 L217.68,275 L183,272 L183,272 L173,262 L6,262 A0,0 0 0 0 6,262 " fill="#FBFB77" filter="url(#f1a4oi3jnqwo8y)" style="stroke:#A80036;stroke-width:1.0;"/><path d="M173,262 L173,272 L183,272 L173,262 " fill="#FBFB77" style="stroke:#A80036;stroke-width:1.0;"/><text fill="#000000" font-family="sans-serif" font-size="13" lengthAdjust="spacing" textLength="156" x="12" y="280.4951">Quando colide com um tiro</text><path d="M482.5,262 L482.5,271 L447.02,275 L482.5,279 L482.5,288.3516 A0,0 0 0 0 482.5,288.3516 L682.5,288.3516 A0,0 0 0 0 682.5,288.3516 L682.5,272 L672.5,262 L482.5,262 A0,0 0 0 0 482.5,262 " fill="#FBFB77" filter="url(#f1a4oi3jnqwo8y)" style="stroke:#A80036;stroke-width:1.0;"/><path d="M672.5,262 L672.5,272 L682.5,272 L672.5,262 " fill="#FBFB77" style="stroke:#A80036;stroke-width:1.0;"/><text fill="#000000" font-family="sans-serif" font-size="13" lengthAdjust="spacing" textLength="179" x="488.5" y="280.4951">Quando colide com um inimigo</text><!--MD5=[5845a50cbdba141483f0e86b3e4a92c5]
link GameState to Hero--><path codeLine="26" d="M332.5,60.56 C332.5,75.38 332.5,93.63 332.5,109.36 " fill="none" id="GameState-Hero" style="stroke:#A80036;stroke-width:1.0;"/><polygon fill="#A80036" points="332.5,114.6,336.5,105.6,332.5,109.6,328.5,105.6,332.5,114.6" style="stroke:#A80036;stroke-width:1.0;"/><polygon fill="#A80036" points="332.5,55.14,328.5,64.14,332.5,60.14,336.5,64.14,332.5,55.14" style="stroke:#A80036;stroke-width:1.0;"/><!--MD5=[323da17bf77ef2c8e2d919452f88d1b2]
link Hero to Shooter--><path codeLine="28" d="M314.41,181.82 C306.29,197.43 296.66,215.96 288.17,232.31 " fill="none" id="Hero-Shooter" style="stroke:#A80036;stroke-width:1.0;"/><polygon fill="#A80036" points="285.8,236.86,293.5135,230.7361,288.1158,232.4286,286.4233,227.0309,285.8,236.86" style="stroke:#A80036;stroke-width:1.0;"/><polygon fill="#A80036" points="316.86,177.1,309.1702,183.2536,314.5613,181.5403,316.2746,186.9314,316.86,177.1" style="stroke:#A80036;stroke-width:1.0;"/><!--MD5=[89e90f80b45d6f739af16baccb810663]
link Hero to Enemies--><path codeLine="29" d="M350.59,181.82 C358.71,197.43 368.34,215.96 376.83,232.31 " fill="none" id="Hero-Enemies" style="stroke:#A80036;stroke-width:1.0;"/><polygon fill="#A80036" points="379.2,236.86,378.5767,227.0309,376.8842,232.4286,371.4865,230.7361,379.2,236.86" style="stroke:#A80036;stroke-width:1.0;"/><polygon fill="#A80036" points="348.14,177.1,348.7254,186.9314,350.4387,181.5403,355.8298,183.2536,348.14,177.1" style="stroke:#A80036;stroke-width:1.0;"/><!--MD5=[e4003e1dceb8be9a30fea5afbec2ef52]
@startuml
'https://plantuml.com/component-diagram



class GameState{
}


class Hero{
+ move() : void
}

class Shooter{
+ move() : void
+ killHero() : void
}

class Enemies{
+ move() : void
+ killHero() : void
}

note left of Shooter: Quando colide com um tiro
note right of Enemies: Quando colide com um inimigo

GameState <- -> Hero

Hero <- -> Shooter
Hero <- -> Enemies
@enduml

@startuml



class GameState{
}


class Hero{
+ move() : void
}

class Shooter{
+ move() : void
+ killHero() : void
}

class Enemies{
+ move() : void
+ killHero() : void
}

note left of Shooter: Quando colide com um tiro
note right of Enemies: Quando colide com um inimigo

GameState <- -> Hero

Hero <- -> Shooter
Hero <- -> Enemies
@enduml

PlantUML version 1.2022.0(Tue Jan 11 16:16:42 GMT 2022)
(GPL source distribution)
Java Runtime: OpenJDK Runtime Environment
JVM: OpenJDK 64-Bit Server VM
Default Encoding: Cp1252
Language: pt
Country: PT
--></g></svg>