<?xml version="1.0" encoding="UTF-8" standalone="no"?><svg xmlns="http://www.w3.org/2000/svg" xmlns:xlink="http://www.w3.org/1999/xlink" contentScriptType="application/ecmascript" contentStyleType="text/css" height="300px" preserveAspectRatio="none" style="width:729px;height:300px;background:#FFFFFF;" version="1.1" viewBox="0 0 729 300" width="729px" zoomAndPan="magnify"><defs><filter height="300%" id="f1m4uoi12zo58n" width="300%" x="-1" y="-1"><feGaussianBlur result="blurOut" stdDeviation="2.0"/><feColorMatrix in="blurOut" result="blurOut2" type="matrix" values="0 0 0 0 0 0 0 0 0 0 0 0 0 0 0 0 0 0 .4 0"/><feOffset dx="4.0" dy="4.0" in="blurOut2" result="blurOut3"/><feBlend in="SourceGraphic" in2="blurOut3" mode="normal"/></filter></defs><g><!--MD5=[1d7ba1c7002d54515419844fbd155368]
class Controller--><rect codeLine="2" fill="#FEFECE" filter="url(#f1m4uoi12zo58n)" height="75.6719" id="Controller" style="stroke:#A80036;stroke-width:1.5;" width="180" x="107" y="7"/><ellipse cx="165.75" cy="23" fill="#ADD1B2" rx="11" ry="11" style="stroke:#A80036;stroke-width:1.0;"/><path d="M167.75,19.5 Q167.9531,19 168.1875,18.75 Q168.4219,18.5 168.6875,18.5 Q169.1563,18.5 169.4531,18.7813 Q169.75,19.0625 169.75,19.7188 L169.75,21.2813 Q169.75,21.9375 169.4688,22.2188 Q169.1875,22.5 168.75,22.5 Q168.3594,22.5 168.1094,22.3281 Q167.8594,22.1563 167.75,21.7031 Q167.7031,21.3906 167.5313,21.2188 Q167.2188,20.8906 166.6563,20.7031 Q166.0938,20.5 165.5313,20.5 Q164.8281,20.5 164.2344,20.7813 Q163.6563,21.0625 163.2031,21.6875 Q162.75,22.3125 162.75,23.1719 L162.75,24.0938 Q162.75,25.125 163.5938,25.8125 Q164.4375,26.5 165.9375,26.5 Q166.8281,26.5 167.4531,26.2969 Q167.8125,26.1875 168.2188,25.8281 Q168.4844,25.625 168.625,25.5625 Q168.7656,25.5 168.9375,25.5 Q169.2656,25.5 169.5,25.7656 Q169.75,26.0156 169.75,26.375 Q169.75,26.7188 169.4063,27.125 Q168.9063,27.7188 168.1094,28.0469 Q167.0625,28.5 165.7813,28.5 Q164.2813,28.5 163.0781,27.9063 Q162.1094,27.4375 161.4219,26.4219 Q160.75,25.4063 160.75,24.2031 L160.75,23.1094 Q160.75,21.8594 161.3438,20.7656 Q161.9531,19.6719 163,19.0938 Q164.0625,18.5 165.25,18.5 Q165.9688,18.5 166.5938,18.75 Q167.2188,19 167.75,19.5 Z " fill="#000000"/><text fill="#000000" font-family="sans-serif" font-size="12" lengthAdjust="spacing" textLength="54" x="186.25" y="27.9102">Controller</text><line style="stroke:#A80036;stroke-width:1.5;" x1="108" x2="286" y1="39" y2="39"/><line style="stroke:#A80036;stroke-width:1.5;" x1="108" x2="286" y1="47" y2="47"/><ellipse cx="118" cy="58" fill="#84BE84" rx="3" ry="3" style="stroke:#038048;stroke-width:1.0;"/><text fill="#000000" font-family="sans-serif" font-size="11" lengthAdjust="spacing" textLength="154" x="127" y="62.4189">Controller(FactoryState factory)</text><ellipse cx="118" cy="71.8359" fill="#84BE84" rx="3" ry="3" style="stroke:#038048;stroke-width:1.0;"/><text fill="#000000" font-family="sans-serif" font-size="11" lengthAdjust="spacing" textLength="24" x="127" y="76.2549">run()</text><!--MD5=[7e51a97469e63bc1c86a229e7a434dbc]
class ControllerState--><rect codeLine="7" fill="#FEFECE" filter="url(#f1m4uoi12zo58n)" height="61.8359" id="ControllerState" style="stroke:#A80036;stroke-width:1.5;" width="114" x="322" y="14"/><ellipse cx="337" cy="30" fill="#A9DCDF" rx="11" ry="11" style="stroke:#A80036;stroke-width:1.0;"/><path d="M338.75,31.5 L335.4531,31.5 L335.0156,32.5 L335.0156,32.5 L335.4844,32.5 L336,33.125 L336,33.5 L336,33.875 L335.4844,34.5 L335.0156,34.5 L333.125,34.5 L332.5156,34.5 L332,33.875 L332,33.5 L332,33.125 L332.5156,32.5 L333.125,32.5 L335.4375,26.5 L334.5625,26.5 L333.5156,26.5 L333,25.875 L333,25.5 L333,25.125 L333.5156,24.5 L334.5625,24.5 L338.2344,24.5 L340.9219,32.5 L341.4844,32.5 L341.4844,32.5 L342,33.125 L342,33.5 L342,33.875 L341.4844,34.5 L340.9219,34.5 L339.0313,34.5 L338.5156,34.5 L338,33.875 L338,33.5 L338,33.125 L338.5156,32.5 L339.0313,32.5 L339.0313,32.5 L338.75,31.5 Z M338.2031,29.5 L337,25.9219 L335.9688,29.5 L338.2031,29.5 Z " fill="#000000"/><text fill="#000000" font-family="sans-serif" font-size="12" font-style="italic" lengthAdjust="spacing" textLength="82" x="351" y="34.9102">ControllerState</text><line style="stroke:#A80036;stroke-width:1.5;" x1="323" x2="435" y1="46" y2="46"/><line style="stroke:#A80036;stroke-width:1.5;" x1="323" x2="435" y1="54" y2="54"/><ellipse cx="333" cy="65" fill="#84BE84" rx="3" ry="3" style="stroke:#038048;stroke-width:1.0;"/><text fill="#000000" font-family="sans-serif" font-size="11" font-style="italic" lengthAdjust="spacing" textLength="24" x="342" y="69.4189">run()</text><!--MD5=[7bcbd864a0d3e394188a6ff03635bc96]
class MenuState--><rect codeLine="11" fill="#FEFECE" filter="url(#f1m4uoi12zo58n)" height="61.8359" id="MenuState" style="stroke:#A80036;stroke-width:1.5;" width="90" x="60" y="143"/><ellipse cx="75" cy="159" fill="#ADD1B2" rx="11" ry="11" style="stroke:#A80036;stroke-width:1.0;"/><path d="M77,155.5 Q77.2031,155 77.4375,154.75 Q77.6719,154.5 77.9375,154.5 Q78.4063,154.5 78.7031,154.7813 Q79,155.0625 79,155.7188 L79,157.2813 Q79,157.9375 78.7188,158.2188 Q78.4375,158.5 78,158.5 Q77.6094,158.5 77.3594,158.3281 Q77.1094,158.1563 77,157.7031 Q76.9531,157.3906 76.7813,157.2188 Q76.4688,156.8906 75.9063,156.7031 Q75.3438,156.5 74.7813,156.5 Q74.0781,156.5 73.4844,156.7813 Q72.9063,157.0625 72.4531,157.6875 Q72,158.3125 72,159.1719 L72,160.0938 Q72,161.125 72.8438,161.8125 Q73.6875,162.5 75.1875,162.5 Q76.0781,162.5 76.7031,162.2969 Q77.0625,162.1875 77.4688,161.8281 Q77.7344,161.625 77.875,161.5625 Q78.0156,161.5 78.1875,161.5 Q78.5156,161.5 78.75,161.7656 Q79,162.0156 79,162.375 Q79,162.7188 78.6563,163.125 Q78.1563,163.7188 77.3594,164.0469 Q76.3125,164.5 75.0313,164.5 Q73.5313,164.5 72.3281,163.9063 Q71.3594,163.4375 70.6719,162.4219 Q70,161.4063 70,160.2031 L70,159.1094 Q70,157.8594 70.5938,156.7656 Q71.2031,155.6719 72.25,155.0938 Q73.3125,154.5 74.5,154.5 Q75.2188,154.5 75.8438,154.75 Q76.4688,155 77,155.5 Z " fill="#000000"/><text fill="#000000" font-family="sans-serif" font-size="12" lengthAdjust="spacing" textLength="58" x="89" y="163.9102">MenuState</text><line style="stroke:#A80036;stroke-width:1.5;" x1="61" x2="149" y1="175" y2="175"/><line style="stroke:#A80036;stroke-width:1.5;" x1="61" x2="149" y1="183" y2="183"/><ellipse cx="71" cy="194" fill="#84BE84" rx="3" ry="3" style="stroke:#038048;stroke-width:1.0;"/><text fill="#000000" font-family="sans-serif" font-size="11" lengthAdjust="spacing" textLength="24" x="80" y="198.4189">run()</text><!--MD5=[fc1ec62a971dcfd602aa5a70ad593a35]
class RankingState--><rect codeLine="14" fill="#FEFECE" filter="url(#f1m4uoi12zo58n)" height="61.8359" id="RankingState" style="stroke:#A80036;stroke-width:1.5;" width="106" x="185" y="143"/><ellipse cx="200" cy="159" fill="#ADD1B2" rx="11" ry="11" style="stroke:#A80036;stroke-width:1.0;"/><path d="M202,155.5 Q202.2031,155 202.4375,154.75 Q202.6719,154.5 202.9375,154.5 Q203.4063,154.5 203.7031,154.7813 Q204,155.0625 204,155.7188 L204,157.2813 Q204,157.9375 203.7188,158.2188 Q203.4375,158.5 203,158.5 Q202.6094,158.5 202.3594,158.3281 Q202.1094,158.1563 202,157.7031 Q201.9531,157.3906 201.7813,157.2188 Q201.4688,156.8906 200.9063,156.7031 Q200.3438,156.5 199.7813,156.5 Q199.0781,156.5 198.4844,156.7813 Q197.9063,157.0625 197.4531,157.6875 Q197,158.3125 197,159.1719 L197,160.0938 Q197,161.125 197.8438,161.8125 Q198.6875,162.5 200.1875,162.5 Q201.0781,162.5 201.7031,162.2969 Q202.0625,162.1875 202.4688,161.8281 Q202.7344,161.625 202.875,161.5625 Q203.0156,161.5 203.1875,161.5 Q203.5156,161.5 203.75,161.7656 Q204,162.0156 204,162.375 Q204,162.7188 203.6563,163.125 Q203.1563,163.7188 202.3594,164.0469 Q201.3125,164.5 200.0313,164.5 Q198.5313,164.5 197.3281,163.9063 Q196.3594,163.4375 195.6719,162.4219 Q195,161.4063 195,160.2031 L195,159.1094 Q195,157.8594 195.5938,156.7656 Q196.2031,155.6719 197.25,155.0938 Q198.3125,154.5 199.5,154.5 Q200.2188,154.5 200.8438,154.75 Q201.4688,155 202,155.5 Z " fill="#000000"/><text fill="#000000" font-family="sans-serif" font-size="12" lengthAdjust="spacing" textLength="74" x="214" y="163.9102">RankingState</text><line style="stroke:#A80036;stroke-width:1.5;" x1="186" x2="290" y1="175" y2="175"/><line style="stroke:#A80036;stroke-width:1.5;" x1="186" x2="290" y1="183" y2="183"/><ellipse cx="196" cy="194" fill="#84BE84" rx="3" ry="3" style="stroke:#038048;stroke-width:1.0;"/><text fill="#000000" font-family="sans-serif" font-size="11" lengthAdjust="spacing" textLength="24" x="205" y="198.4189">run()</text><!--MD5=[da0f377cc5791586f05aa8c8c967a14d]
class SettingsState--><rect codeLine="17" fill="#FEFECE" filter="url(#f1m4uoi12zo58n)" height="61.8359" id="SettingsState" style="stroke:#A80036;stroke-width:1.5;" width="105" x="326.5" y="143"/><ellipse cx="341.5" cy="159" fill="#ADD1B2" rx="11" ry="11" style="stroke:#A80036;stroke-width:1.0;"/><path d="M343.5,155.5 Q343.7031,155 343.9375,154.75 Q344.1719,154.5 344.4375,154.5 Q344.9063,154.5 345.2031,154.7813 Q345.5,155.0625 345.5,155.7188 L345.5,157.2813 Q345.5,157.9375 345.2188,158.2188 Q344.9375,158.5 344.5,158.5 Q344.1094,158.5 343.8594,158.3281 Q343.6094,158.1563 343.5,157.7031 Q343.4531,157.3906 343.2813,157.2188 Q342.9688,156.8906 342.4063,156.7031 Q341.8438,156.5 341.2813,156.5 Q340.5781,156.5 339.9844,156.7813 Q339.4063,157.0625 338.9531,157.6875 Q338.5,158.3125 338.5,159.1719 L338.5,160.0938 Q338.5,161.125 339.3438,161.8125 Q340.1875,162.5 341.6875,162.5 Q342.5781,162.5 343.2031,162.2969 Q343.5625,162.1875 343.9688,161.8281 Q344.2344,161.625 344.375,161.5625 Q344.5156,161.5 344.6875,161.5 Q345.0156,161.5 345.25,161.7656 Q345.5,162.0156 345.5,162.375 Q345.5,162.7188 345.1563,163.125 Q344.6563,163.7188 343.8594,164.0469 Q342.8125,164.5 341.5313,164.5 Q340.0313,164.5 338.8281,163.9063 Q337.8594,163.4375 337.1719,162.4219 Q336.5,161.4063 336.5,160.2031 L336.5,159.1094 Q336.5,157.8594 337.0938,156.7656 Q337.7031,155.6719 338.75,155.0938 Q339.8125,154.5 341,154.5 Q341.7188,154.5 342.3438,154.75 Q342.9688,155 343.5,155.5 Z " fill="#000000"/><text fill="#000000" font-family="sans-serif" font-size="12" lengthAdjust="spacing" textLength="73" x="355.5" y="163.9102">SettingsState</text><line style="stroke:#A80036;stroke-width:1.5;" x1="327.5" x2="430.5" y1="175" y2="175"/><line style="stroke:#A80036;stroke-width:1.5;" x1="327.5" x2="430.5" y1="183" y2="183"/><ellipse cx="337.5" cy="194" fill="#84BE84" rx="3" ry="3" style="stroke:#038048;stroke-width:1.0;"/><text fill="#000000" font-family="sans-serif" font-size="11" lengthAdjust="spacing" textLength="24" x="346.5" y="198.4189">run()</text><!--MD5=[48e88c162c5505361c629eb6ff3812a8]
class GameState--><rect codeLine="21" fill="#FEFECE" filter="url(#f1m4uoi12zo58n)" height="61.8359" id="GameState" style="stroke:#A80036;stroke-width:1.5;" width="94" x="467" y="143"/><ellipse cx="482" cy="159" fill="#ADD1B2" rx="11" ry="11" style="stroke:#A80036;stroke-width:1.0;"/><path d="M484,155.5 Q484.2031,155 484.4375,154.75 Q484.6719,154.5 484.9375,154.5 Q485.4063,154.5 485.7031,154.7813 Q486,155.0625 486,155.7188 L486,157.2813 Q486,157.9375 485.7188,158.2188 Q485.4375,158.5 485,158.5 Q484.6094,158.5 484.3594,158.3281 Q484.1094,158.1563 484,157.7031 Q483.9531,157.3906 483.7813,157.2188 Q483.4688,156.8906 482.9063,156.7031 Q482.3438,156.5 481.7813,156.5 Q481.0781,156.5 480.4844,156.7813 Q479.9063,157.0625 479.4531,157.6875 Q479,158.3125 479,159.1719 L479,160.0938 Q479,161.125 479.8438,161.8125 Q480.6875,162.5 482.1875,162.5 Q483.0781,162.5 483.7031,162.2969 Q484.0625,162.1875 484.4688,161.8281 Q484.7344,161.625 484.875,161.5625 Q485.0156,161.5 485.1875,161.5 Q485.5156,161.5 485.75,161.7656 Q486,162.0156 486,162.375 Q486,162.7188 485.6563,163.125 Q485.1563,163.7188 484.3594,164.0469 Q483.3125,164.5 482.0313,164.5 Q480.5313,164.5 479.3281,163.9063 Q478.3594,163.4375 477.6719,162.4219 Q477,161.4063 477,160.2031 L477,159.1094 Q477,157.8594 477.5938,156.7656 Q478.2031,155.6719 479.25,155.0938 Q480.3125,154.5 481.5,154.5 Q482.2188,154.5 482.8438,154.75 Q483.4688,155 484,155.5 Z " fill="#000000"/><text fill="#000000" font-family="sans-serif" font-size="12" lengthAdjust="spacing" textLength="62" x="496" y="163.9102">GameState</text><line style="stroke:#A80036;stroke-width:1.5;" x1="468" x2="560" y1="175" y2="175"/><line style="stroke:#A80036;stroke-width:1.5;" x1="468" x2="560" y1="183" y2="183"/><ellipse cx="478" cy="194" fill="#84BE84" rx="3" ry="3" style="stroke:#038048;stroke-width:1.0;"/><text fill="#000000" font-family="sans-serif" font-size="11" lengthAdjust="spacing" textLength="24" x="487" y="198.4189">run()</text><!--MD5=[8fa0b5d19129e6d6514a5f0fce8ff44e]
class GameOverState--><rect codeLine="25" fill="#FEFECE" filter="url(#f1m4uoi12zo58n)" height="61.8359" id="GameOverState" style="stroke:#A80036;stroke-width:1.5;" width="119" x="596.5" y="143"/><ellipse cx="611.5" cy="159" fill="#ADD1B2" rx="11" ry="11" style="stroke:#A80036;stroke-width:1.0;"/><path d="M613.5,155.5 Q613.7031,155 613.9375,154.75 Q614.1719,154.5 614.4375,154.5 Q614.9063,154.5 615.2031,154.7813 Q615.5,155.0625 615.5,155.7188 L615.5,157.2813 Q615.5,157.9375 615.2188,158.2188 Q614.9375,158.5 614.5,158.5 Q614.1094,158.5 613.8594,158.3281 Q613.6094,158.1563 613.5,157.7031 Q613.4531,157.3906 613.2813,157.2188 Q612.9688,156.8906 612.4063,156.7031 Q611.8438,156.5 611.2813,156.5 Q610.5781,156.5 609.9844,156.7813 Q609.4063,157.0625 608.9531,157.6875 Q608.5,158.3125 608.5,159.1719 L608.5,160.0938 Q608.5,161.125 609.3438,161.8125 Q610.1875,162.5 611.6875,162.5 Q612.5781,162.5 613.2031,162.2969 Q613.5625,162.1875 613.9688,161.8281 Q614.2344,161.625 614.375,161.5625 Q614.5156,161.5 614.6875,161.5 Q615.0156,161.5 615.25,161.7656 Q615.5,162.0156 615.5,162.375 Q615.5,162.7188 615.1563,163.125 Q614.6563,163.7188 613.8594,164.0469 Q612.8125,164.5 611.5313,164.5 Q610.0313,164.5 608.8281,163.9063 Q607.8594,163.4375 607.1719,162.4219 Q606.5,161.4063 606.5,160.2031 L606.5,159.1094 Q606.5,157.8594 607.0938,156.7656 Q607.7031,155.6719 608.75,155.0938 Q609.8125,154.5 611,154.5 Q611.7188,154.5 612.3438,154.75 Q612.9688,155 613.5,155.5 Z " fill="#000000"/><text fill="#000000" font-family="sans-serif" font-size="12" lengthAdjust="spacing" textLength="87" x="625.5" y="163.9102">GameOverState</text><line style="stroke:#A80036;stroke-width:1.5;" x1="597.5" x2="714.5" y1="175" y2="175"/><line style="stroke:#A80036;stroke-width:1.5;" x1="597.5" x2="714.5" y1="183" y2="183"/><ellipse cx="607.5" cy="194" fill="#84BE84" rx="3" ry="3" style="stroke:#038048;stroke-width:1.0;"/><text fill="#000000" font-family="sans-serif" font-size="11" lengthAdjust="spacing" textLength="24" x="616.5" y="198.4189">run()</text><path d="M471,32 L471,41 L436.16,45 L471,49 L471,58.3516 A0,0 0 0 0 471,58.3516 L523,58.3516 A0,0 0 0 0 523,58.3516 L523,42 L513,32 L471,32 A0,0 0 0 0 471,32 " fill="#FBFB77" filter="url(#f1m4uoi12zo58n)" style="stroke:#A80036;stroke-width:1.0;"/><path d="M513,32 L513,42 L523,42 L513,32 " fill="#FBFB77" style="stroke:#A80036;stroke-width:1.0;"/><text fill="#000000" font-family="sans-serif" font-size="13" lengthAdjust="spacing" textLength="31" x="477" y="50.4951">State</text><path d="M51,265 L51,291.3516 A0,0 0 0 0 51,291.3516 L159,291.3516 A0,0 0 0 0 159,291.3516 L159,275 L149,265 L109,265 L105,205.05 L101,265 L51,265 A0,0 0 0 0 51,265 " fill="#FBFB77" filter="url(#f1m4uoi12zo58n)" style="stroke:#A80036;stroke-width:1.0;"/><path d="M149,265 L149,275 L159,275 L149,265 " fill="#FBFB77" style="stroke:#A80036;stroke-width:1.0;"/><text fill="#000000" font-family="sans-serif" font-size="13" lengthAdjust="spacing" textLength="87" x="57" y="283.4951">Concrete State</text><path d="M6,32 L6,58.3516 A0,0 0 0 0 6,58.3516 L72,58.3516 A0,0 0 0 0 72,58.3516 L72,50 L106.68,45 L72,42 L72,42 L62,32 L6,32 A0,0 0 0 0 6,32 " fill="#FBFB77" filter="url(#f1m4uoi12zo58n)" style="stroke:#A80036;stroke-width:1.0;"/><path d="M62,32 L62,42 L72,42 L62,32 " fill="#FBFB77" style="stroke:#A80036;stroke-width:1.0;"/><text fill="#000000" font-family="sans-serif" font-size="13" lengthAdjust="spacing" textLength="45" x="12" y="50.4951">Context</text><!--MD5=[30a8d75400fc8cb6e033e64b5f6ca5e2]
reverse link ControllerState to MenuState--><path codeLine="29" d="M303.51,83.48 C241.3,112.11 222.68,117.44 167,143 C161.57,145.49 155.89,148.16 150.27,150.83 " fill="none" id="ControllerState-backto-MenuState" style="stroke:#A80036;stroke-width:1.0;"/><polygon fill="none" points="300.69,77.07,321.78,74.99,306.6,89.77,300.69,77.07" style="stroke:#A80036;stroke-width:1.0;"/><!--MD5=[a68f36154445ab5c21489c985eb1477e]
reverse link ControllerState to RankingState--><path codeLine="30" d="M330.67,89.53 C311.24,107.03 289.31,126.78 271.66,142.68 " fill="none" id="ControllerState-backto-RankingState" style="stroke:#A80036;stroke-width:1.0;"/><polygon fill="none" points="326.04,84.28,345.58,76.1,335.41,94.68,326.04,84.28" style="stroke:#A80036;stroke-width:1.0;"/><!--MD5=[3aba780b4c92d70c825976d53e4b68f0]
reverse link ControllerState to SettingsState--><path codeLine="31" d="M379,96.12 C379,111.86 379,128.75 379,142.68 " fill="none" id="ControllerState-backto-SettingsState" style="stroke:#A80036;stroke-width:1.0;"/><polygon fill="none" points="372,96.1,379,76.1,386,96.1,372,96.1" style="stroke:#A80036;stroke-width:1.0;"/><!--MD5=[b266988aafb40e10a0b4a8822c75d6ed]
reverse link ControllerState to GameState--><path codeLine="32" d="M425.83,90.05 C444.29,107.42 465.04,126.94 481.77,142.68 " fill="none" id="ControllerState-backto-GameState" style="stroke:#A80036;stroke-width:1.0;"/><polygon fill="none" points="420.76,94.9,410.99,76.1,430.36,84.7,420.76,94.9" style="stroke:#A80036;stroke-width:1.0;"/><!--MD5=[06d6d2b30e3c75b625449afe4a475587]
reverse link ControllerState to GameOverState--><path codeLine="33" d="M454.64,83.16 C511.7,109.82 559.58,131.06 596.06,147.03 " fill="none" id="ControllerState-backto-GameOverState" style="stroke:#A80036;stroke-width:1.0;"/><polygon fill="none" points="451.35,89.35,436.22,74.51,457.3,76.67,451.35,89.35" style="stroke:#A80036;stroke-width:1.0;"/><!--MD5=[406610238e9068a93f1fc92c9149d14b]
link Controller to ControllerState--><path codeLine="42" d="M287.29,45 C297.05,45 306.81,45 316.58,45 " fill="none" id="Controller-to-ControllerState" style="stroke:#A80036;stroke-width:1.0;stroke-dasharray:7.0,7.0;"/><polygon fill="#A80036" points="321.68,45,312.68,41,316.68,45,312.68,49,321.68,45" style="stroke:#A80036;stroke-width:1.0;"/><!--MD5=[0fac28a09032f0fdfcb66223b0b4c8c4]
@startuml

class Controller{
+Controller(FactoryState factory)
+run()
}

abstract class ControllerState{
+{abstract}run()
}

class MenuState{
+run()
}
class RankingState{
+run()
}
class SettingsState{
+run()
}

class GameState{
+run()
}

class GameOverState{
+run()
}

ControllerState <|- - MenuState
ControllerState <|- - RankingState
ControllerState <|- - SettingsState
ControllerState <|- - GameState
ControllerState <|- - GameOverState

note right of ControllerState: State

note "Concrete State" as N1
N1 -u- MenuState

note left of Controller : Context

Controller .r.> ControllerState

@enduml

PlantUML version 1.2021.16(Wed Dec 08 17:25:22 GMT 2021)
(GPL source distribution)
Java Runtime: OpenJDK Runtime Environment
JVM: OpenJDK 64-Bit Server VM
Default Encoding: Cp1252
Language: pt
Country: PT
--></g></svg>