<?xml version="1.0" encoding="UTF-8" standalone="no"?><svg xmlns="http://www.w3.org/2000/svg" xmlns:xlink="http://www.w3.org/1999/xlink" contentScriptType="application/ecmascript" contentStyleType="text/css" height="300px" preserveAspectRatio="none" style="width:689px;height:300px;background:#FFFFFF;" version="1.1" viewBox="0 0 689 300" width="689px" zoomAndPan="magnify"><defs><filter height="300%" id="f1f30kns1gm7ll" width="300%" x="-1" y="-1"><feGaussianBlur result="blurOut" stdDeviation="2.0"/><feColorMatrix in="blurOut" result="blurOut2" type="matrix" values="0 0 0 0 0 0 0 0 0 0 0 0 0 0 0 0 0 0 .4 0"/><feOffset dx="4.0" dy="4.0" in="blurOut2" result="blurOut3"/><feBlend in="SourceGraphic" in2="blurOut3" mode="normal"/></filter></defs><g><!--MD5=[1d7ba1c7002d54515419844fbd155368]
class Controller--><rect codeLine="2" fill="#FEFECE" filter="url(#f1f30kns1gm7ll)" height="75.6719" id="Controller" style="stroke:#A80036;stroke-width:1.5;" width="180" x="107" y="7"/><ellipse cx="165.75" cy="23" fill="#ADD1B2" rx="11" ry="11" style="stroke:#A80036;stroke-width:1.0;"/><path d="M167.75,19.5 Q167.9531,19 168.1875,18.75 Q168.4219,18.5 168.6875,18.5 Q169.1563,18.5 169.4531,18.7813 Q169.75,19.0625 169.75,19.7188 L169.75,21.2813 Q169.75,21.9375 169.4688,22.2188 Q169.1875,22.5 168.75,22.5 Q168.3594,22.5 168.1094,22.3281 Q167.8594,22.1563 167.75,21.7031 Q167.7031,21.3906 167.5313,21.2188 Q167.2188,20.8906 166.6563,20.7031 Q166.0938,20.5 165.5313,20.5 Q164.8281,20.5 164.2344,20.7813 Q163.6563,21.0625 163.2031,21.6875 Q162.75,22.3125 162.75,23.1719 L162.75,24.0938 Q162.75,25.125 163.5938,25.8125 Q164.4375,26.5 165.9375,26.5 Q166.8281,26.5 167.4531,26.2969 Q167.8125,26.1875 168.2188,25.8281 Q168.4844,25.625 168.625,25.5625 Q168.7656,25.5 168.9375,25.5 Q169.2656,25.5 169.5,25.7656 Q169.75,26.0156 169.75,26.375 Q169.75,26.7188 169.4063,27.125 Q168.9063,27.7188 168.1094,28.0469 Q167.0625,28.5 165.7813,28.5 Q164.2813,28.5 163.0781,27.9063 Q162.1094,27.4375 161.4219,26.4219 Q160.75,25.4063 160.75,24.2031 L160.75,23.1094 Q160.75,21.8594 161.3438,20.7656 Q161.9531,19.6719 163,19.0938 Q164.0625,18.5 165.25,18.5 Q165.9688,18.5 166.5938,18.75 Q167.2188,19 167.75,19.5 Z " fill="#000000"/><text fill="#000000" font-family="sans-serif" font-size="12" lengthAdjust="spacing" textLength="54" x="186.25" y="27.9102">Controller</text><line style="stroke:#A80036;stroke-width:1.5;" x1="108" x2="286" y1="39" y2="39"/><line style="stroke:#A80036;stroke-width:1.5;" x1="108" x2="286" y1="47" y2="47"/><ellipse cx="118" cy="58" fill="#84BE84" rx="3" ry="3" style="stroke:#038048;stroke-width:1.0;"/><text fill="#000000" font-family="sans-serif" font-size="11" lengthAdjust="spacing" textLength="154" x="127" y="62.4189">Controller(FactoryState factory)</text><ellipse cx="118" cy="71.8359" fill="#84BE84" rx="3" ry="3" style="stroke:#038048;stroke-width:1.0;"/><text fill="#000000" font-family="sans-serif" font-size="11" lengthAdjust="spacing" textLength="24" x="127" y="76.2549">run()</text><!--MD5=[7e51a97469e63bc1c86a229e7a434dbc]
class ControllerState--><rect codeLine="7" fill="#FEFECE" filter="url(#f1f30kns1gm7ll)" height="61.8359" id="ControllerState" style="stroke:#A80036;stroke-width:1.5;" width="114" x="322" y="14"/><ellipse cx="337" cy="30" fill="#A9DCDF" rx="11" ry="11" style="stroke:#A80036;stroke-width:1.0;"/><path d="M338.75,31.5 L335.4531,31.5 L335.0156,32.5 L335.0156,32.5 L335.4844,32.5 L336,33.125 L336,33.5 L336,33.875 L335.4844,34.5 L335.0156,34.5 L333.125,34.5 L332.5156,34.5 L332,33.875 L332,33.5 L332,33.125 L332.5156,32.5 L333.125,32.5 L335.4375,26.5 L334.5625,26.5 L333.5156,26.5 L333,25.875 L333,25.5 L333,25.125 L333.5156,24.5 L334.5625,24.5 L338.2344,24.5 L340.9219,32.5 L341.4844,32.5 L341.4844,32.5 L342,33.125 L342,33.5 L342,33.875 L341.4844,34.5 L340.9219,34.5 L339.0313,34.5 L338.5156,34.5 L338,33.875 L338,33.5 L338,33.125 L338.5156,32.5 L339.0313,32.5 L339.0313,32.5 L338.75,31.5 Z M338.2031,29.5 L337,25.9219 L335.9688,29.5 L338.2031,29.5 Z " fill="#000000"/><text fill="#000000" font-family="sans-serif" font-size="12" font-style="italic" lengthAdjust="spacing" textLength="82" x="351" y="34.9102">ControllerState</text><line style="stroke:#A80036;stroke-width:1.5;" x1="323" x2="435" y1="46" y2="46"/><line style="stroke:#A80036;stroke-width:1.5;" x1="323" x2="435" y1="54" y2="54"/><ellipse cx="333" cy="65" fill="#84BE84" rx="3" ry="3" style="stroke:#038048;stroke-width:1.0;"/><text fill="#000000" font-family="sans-serif" font-size="11" font-style="italic" lengthAdjust="spacing" textLength="24" x="342" y="69.4189">run()</text><!--MD5=[7bcbd864a0d3e394188a6ff03635bc96]
class MenuState--><rect codeLine="11" fill="#FEFECE" filter="url(#f1f30kns1gm7ll)" height="61.8359" id="MenuState" style="stroke:#A80036;stroke-width:1.5;" width="90" x="260" y="143"/><ellipse cx="275" cy="159" fill="#ADD1B2" rx="11" ry="11" style="stroke:#A80036;stroke-width:1.0;"/><path d="M277,155.5 Q277.2031,155 277.4375,154.75 Q277.6719,154.5 277.9375,154.5 Q278.4063,154.5 278.7031,154.7813 Q279,155.0625 279,155.7188 L279,157.2813 Q279,157.9375 278.7188,158.2188 Q278.4375,158.5 278,158.5 Q277.6094,158.5 277.3594,158.3281 Q277.1094,158.1563 277,157.7031 Q276.9531,157.3906 276.7813,157.2188 Q276.4688,156.8906 275.9063,156.7031 Q275.3438,156.5 274.7813,156.5 Q274.0781,156.5 273.4844,156.7813 Q272.9063,157.0625 272.4531,157.6875 Q272,158.3125 272,159.1719 L272,160.0938 Q272,161.125 272.8438,161.8125 Q273.6875,162.5 275.1875,162.5 Q276.0781,162.5 276.7031,162.2969 Q277.0625,162.1875 277.4688,161.8281 Q277.7344,161.625 277.875,161.5625 Q278.0156,161.5 278.1875,161.5 Q278.5156,161.5 278.75,161.7656 Q279,162.0156 279,162.375 Q279,162.7188 278.6563,163.125 Q278.1563,163.7188 277.3594,164.0469 Q276.3125,164.5 275.0313,164.5 Q273.5313,164.5 272.3281,163.9063 Q271.3594,163.4375 270.6719,162.4219 Q270,161.4063 270,160.2031 L270,159.1094 Q270,157.8594 270.5938,156.7656 Q271.2031,155.6719 272.25,155.0938 Q273.3125,154.5 274.5,154.5 Q275.2188,154.5 275.8438,154.75 Q276.4688,155 277,155.5 Z " fill="#000000"/><text fill="#000000" font-family="sans-serif" font-size="12" lengthAdjust="spacing" textLength="58" x="289" y="163.9102">MenuState</text><line style="stroke:#A80036;stroke-width:1.5;" x1="261" x2="349" y1="175" y2="175"/><line style="stroke:#A80036;stroke-width:1.5;" x1="261" x2="349" y1="183" y2="183"/><ellipse cx="271" cy="194" fill="#84BE84" rx="3" ry="3" style="stroke:#038048;stroke-width:1.0;"/><text fill="#000000" font-family="sans-serif" font-size="11" lengthAdjust="spacing" textLength="24" x="280" y="198.4189">run()</text><!--MD5=[7c1883700b8536b1aa4525d366b3c753]
class RankingMenuState--><rect codeLine="14" fill="#FEFECE" filter="url(#f1f30kns1gm7ll)" height="61.8359" id="RankingMenuState" style="stroke:#A80036;stroke-width:1.5;" width="136" x="385" y="143"/><ellipse cx="400" cy="159" fill="#ADD1B2" rx="11" ry="11" style="stroke:#A80036;stroke-width:1.0;"/><path d="M402,155.5 Q402.2031,155 402.4375,154.75 Q402.6719,154.5 402.9375,154.5 Q403.4063,154.5 403.7031,154.7813 Q404,155.0625 404,155.7188 L404,157.2813 Q404,157.9375 403.7188,158.2188 Q403.4375,158.5 403,158.5 Q402.6094,158.5 402.3594,158.3281 Q402.1094,158.1563 402,157.7031 Q401.9531,157.3906 401.7813,157.2188 Q401.4688,156.8906 400.9063,156.7031 Q400.3438,156.5 399.7813,156.5 Q399.0781,156.5 398.4844,156.7813 Q397.9063,157.0625 397.4531,157.6875 Q397,158.3125 397,159.1719 L397,160.0938 Q397,161.125 397.8438,161.8125 Q398.6875,162.5 400.1875,162.5 Q401.0781,162.5 401.7031,162.2969 Q402.0625,162.1875 402.4688,161.8281 Q402.7344,161.625 402.875,161.5625 Q403.0156,161.5 403.1875,161.5 Q403.5156,161.5 403.75,161.7656 Q404,162.0156 404,162.375 Q404,162.7188 403.6563,163.125 Q403.1563,163.7188 402.3594,164.0469 Q401.3125,164.5 400.0313,164.5 Q398.5313,164.5 397.3281,163.9063 Q396.3594,163.4375 395.6719,162.4219 Q395,161.4063 395,160.2031 L395,159.1094 Q395,157.8594 395.5938,156.7656 Q396.2031,155.6719 397.25,155.0938 Q398.3125,154.5 399.5,154.5 Q400.2188,154.5 400.8438,154.75 Q401.4688,155 402,155.5 Z " fill="#000000"/><text fill="#000000" font-family="sans-serif" font-size="12" lengthAdjust="spacing" textLength="104" x="414" y="163.9102">RankingMenuState</text><line style="stroke:#A80036;stroke-width:1.5;" x1="386" x2="520" y1="175" y2="175"/><line style="stroke:#A80036;stroke-width:1.5;" x1="386" x2="520" y1="183" y2="183"/><ellipse cx="396" cy="194" fill="#84BE84" rx="3" ry="3" style="stroke:#038048;stroke-width:1.0;"/><text fill="#000000" font-family="sans-serif" font-size="11" lengthAdjust="spacing" textLength="24" x="405" y="198.4189">run()</text><!--MD5=[f9bd5738898a57dffc8d67c0fe89558f]
class SettingsMenuState--><rect codeLine="17" fill="#FEFECE" filter="url(#f1f30kns1gm7ll)" height="61.8359" id="SettingsMenuState" style="stroke:#A80036;stroke-width:1.5;" width="135" x="89.5" y="143"/><ellipse cx="104.5" cy="159" fill="#ADD1B2" rx="11" ry="11" style="stroke:#A80036;stroke-width:1.0;"/><path d="M106.5,155.5 Q106.7031,155 106.9375,154.75 Q107.1719,154.5 107.4375,154.5 Q107.9063,154.5 108.2031,154.7813 Q108.5,155.0625 108.5,155.7188 L108.5,157.2813 Q108.5,157.9375 108.2188,158.2188 Q107.9375,158.5 107.5,158.5 Q107.1094,158.5 106.8594,158.3281 Q106.6094,158.1563 106.5,157.7031 Q106.4531,157.3906 106.2813,157.2188 Q105.9688,156.8906 105.4063,156.7031 Q104.8438,156.5 104.2813,156.5 Q103.5781,156.5 102.9844,156.7813 Q102.4063,157.0625 101.9531,157.6875 Q101.5,158.3125 101.5,159.1719 L101.5,160.0938 Q101.5,161.125 102.3438,161.8125 Q103.1875,162.5 104.6875,162.5 Q105.5781,162.5 106.2031,162.2969 Q106.5625,162.1875 106.9688,161.8281 Q107.2344,161.625 107.375,161.5625 Q107.5156,161.5 107.6875,161.5 Q108.0156,161.5 108.25,161.7656 Q108.5,162.0156 108.5,162.375 Q108.5,162.7188 108.1563,163.125 Q107.6563,163.7188 106.8594,164.0469 Q105.8125,164.5 104.5313,164.5 Q103.0313,164.5 101.8281,163.9063 Q100.8594,163.4375 100.1719,162.4219 Q99.5,161.4063 99.5,160.2031 L99.5,159.1094 Q99.5,157.8594 100.0938,156.7656 Q100.7031,155.6719 101.75,155.0938 Q102.8125,154.5 104,154.5 Q104.7188,154.5 105.3438,154.75 Q105.9688,155 106.5,155.5 Z " fill="#000000"/><text fill="#000000" font-family="sans-serif" font-size="12" lengthAdjust="spacing" textLength="103" x="118.5" y="163.9102">SettingsMenuState</text><line style="stroke:#A80036;stroke-width:1.5;" x1="90.5" x2="223.5" y1="175" y2="175"/><line style="stroke:#A80036;stroke-width:1.5;" x1="90.5" x2="223.5" y1="183" y2="183"/><ellipse cx="100.5" cy="194" fill="#84BE84" rx="3" ry="3" style="stroke:#038048;stroke-width:1.0;"/><text fill="#000000" font-family="sans-serif" font-size="11" lengthAdjust="spacing" textLength="24" x="109.5" y="198.4189">run()</text><!--MD5=[8fa0b5d19129e6d6514a5f0fce8ff44e]
class GameOverState--><rect codeLine="21" fill="#FEFECE" filter="url(#f1f30kns1gm7ll)" height="61.8359" id="GameOverState" style="stroke:#A80036;stroke-width:1.5;" width="119" x="556.5" y="143"/><ellipse cx="571.5" cy="159" fill="#ADD1B2" rx="11" ry="11" style="stroke:#A80036;stroke-width:1.0;"/><path d="M573.5,155.5 Q573.7031,155 573.9375,154.75 Q574.1719,154.5 574.4375,154.5 Q574.9063,154.5 575.2031,154.7813 Q575.5,155.0625 575.5,155.7188 L575.5,157.2813 Q575.5,157.9375 575.2188,158.2188 Q574.9375,158.5 574.5,158.5 Q574.1094,158.5 573.8594,158.3281 Q573.6094,158.1563 573.5,157.7031 Q573.4531,157.3906 573.2813,157.2188 Q572.9688,156.8906 572.4063,156.7031 Q571.8438,156.5 571.2813,156.5 Q570.5781,156.5 569.9844,156.7813 Q569.4063,157.0625 568.9531,157.6875 Q568.5,158.3125 568.5,159.1719 L568.5,160.0938 Q568.5,161.125 569.3438,161.8125 Q570.1875,162.5 571.6875,162.5 Q572.5781,162.5 573.2031,162.2969 Q573.5625,162.1875 573.9688,161.8281 Q574.2344,161.625 574.375,161.5625 Q574.5156,161.5 574.6875,161.5 Q575.0156,161.5 575.25,161.7656 Q575.5,162.0156 575.5,162.375 Q575.5,162.7188 575.1563,163.125 Q574.6563,163.7188 573.8594,164.0469 Q572.8125,164.5 571.5313,164.5 Q570.0313,164.5 568.8281,163.9063 Q567.8594,163.4375 567.1719,162.4219 Q566.5,161.4063 566.5,160.2031 L566.5,159.1094 Q566.5,157.8594 567.0938,156.7656 Q567.7031,155.6719 568.75,155.0938 Q569.8125,154.5 571,154.5 Q571.7188,154.5 572.3438,154.75 Q572.9688,155 573.5,155.5 Z " fill="#000000"/><text fill="#000000" font-family="sans-serif" font-size="12" lengthAdjust="spacing" textLength="87" x="585.5" y="163.9102">GameOverState</text><line style="stroke:#A80036;stroke-width:1.5;" x1="557.5" x2="674.5" y1="175" y2="175"/><line style="stroke:#A80036;stroke-width:1.5;" x1="557.5" x2="674.5" y1="183" y2="183"/><ellipse cx="567.5" cy="194" fill="#84BE84" rx="3" ry="3" style="stroke:#038048;stroke-width:1.0;"/><text fill="#000000" font-family="sans-serif" font-size="11" lengthAdjust="spacing" textLength="24" x="576.5" y="198.4189">run()</text><path d="M471,32 L471,41 L436.16,45 L471,49 L471,58.3516 A0,0 0 0 0 471,58.3516 L523,58.3516 A0,0 0 0 0 523,58.3516 L523,42 L513,32 L471,32 A0,0 0 0 0 471,32 " fill="#FBFB77" filter="url(#f1f30kns1gm7ll)" style="stroke:#A80036;stroke-width:1.0;"/><path d="M513,32 L513,42 L523,42 L513,32 " fill="#FBFB77" style="stroke:#A80036;stroke-width:1.0;"/><text fill="#000000" font-family="sans-serif" font-size="13" lengthAdjust="spacing" textLength="31" x="477" y="50.4951">State</text><path d="M103,265 L103,291.3516 A0,0 0 0 0 103,291.3516 L211,291.3516 A0,0 0 0 0 211,291.3516 L211,275 L201,265 L161,265 L157,205.05 L153,265 L103,265 A0,0 0 0 0 103,265 " fill="#FBFB77" filter="url(#f1f30kns1gm7ll)" style="stroke:#A80036;stroke-width:1.0;"/><path d="M201,265 L201,275 L211,275 L201,265 " fill="#FBFB77" style="stroke:#A80036;stroke-width:1.0;"/><text fill="#000000" font-family="sans-serif" font-size="13" lengthAdjust="spacing" textLength="87" x="109" y="283.4951">Concrete State</text><path d="M6,32 L6,58.3516 A0,0 0 0 0 6,58.3516 L72,58.3516 A0,0 0 0 0 72,58.3516 L72,50 L106.68,45 L72,42 L72,42 L62,32 L6,32 A0,0 0 0 0 6,32 " fill="#FBFB77" filter="url(#f1f30kns1gm7ll)" style="stroke:#A80036;stroke-width:1.0;"/><path d="M62,32 L62,42 L72,42 L62,32 " fill="#FBFB77" style="stroke:#A80036;stroke-width:1.0;"/><text fill="#000000" font-family="sans-serif" font-size="13" lengthAdjust="spacing" textLength="45" x="12" y="50.4951">Context</text><!--MD5=[30a8d75400fc8cb6e033e64b5f6ca5e2]
reverse link ControllerState to MenuState--><path codeLine="25" d="M351.34,93.47 C341.74,109.94 331.24,127.96 322.67,142.68 " fill="none" id="ControllerState-backto-MenuState" style="stroke:#A80036;stroke-width:1.0;"/><polygon fill="none" points="345.35,89.85,361.46,76.1,357.44,96.9,345.35,89.85" style="stroke:#A80036;stroke-width:1.0;"/><!--MD5=[9603a85973e780b4bd66cafa5d1bb335]
reverse link ControllerState to RankingMenuState--><path codeLine="26" d="M406.66,93.47 C416.26,109.94 426.76,127.96 435.33,142.68 " fill="none" id="ControllerState-backto-RankingMenuState" style="stroke:#A80036;stroke-width:1.0;"/><polygon fill="none" points="400.56,96.9,396.54,76.1,412.65,89.85,400.56,96.9" style="stroke:#A80036;stroke-width:1.0;"/><!--MD5=[7afc34516666eb2f87b1d700b3c4e732]
reverse link ControllerState to SettingsMenuState--><path codeLine="27" d="M308.69,86.22 C276.6,104.58 239.23,125.96 209.62,142.9 " fill="none" id="ControllerState-backto-SettingsMenuState" style="stroke:#A80036;stroke-width:1.0;"/><polygon fill="none" points="305.55,79.95,326.39,76.1,312.5,92.1,305.55,79.95" style="stroke:#A80036;stroke-width:1.0;"/><!--MD5=[06d6d2b30e3c75b625449afe4a475587]
reverse link ControllerState to GameOverState--><path codeLine="28" d="M453.1,85.71 C487.58,104.18 527.92,125.8 559.83,142.9 " fill="none" id="ControllerState-backto-GameOverState" style="stroke:#A80036;stroke-width:1.0;"/><polygon fill="none" points="449.49,91.71,435.17,76.1,456.1,79.37,449.49,91.71" style="stroke:#A80036;stroke-width:1.0;"/><!--MD5=[406610238e9068a93f1fc92c9149d14b]
link Controller to ControllerState--><path codeLine="37" d="M287.29,45 C297.05,45 306.81,45 316.58,45 " fill="none" id="Controller-to-ControllerState" style="stroke:#A80036;stroke-width:1.0;stroke-dasharray:7.0,7.0;"/><polygon fill="#A80036" points="321.68,45,312.68,41,316.68,45,312.68,49,321.68,45" style="stroke:#A80036;stroke-width:1.0;"/><!--MD5=[3b38291ddd651626916a4abfc362b390]
@startuml

class Controller{
+Controller(FactoryState factory)
+run()
}

abstract class ControllerState{
+{abstract}run()
}

class MenuState{
+run()
}
class RankingMenuState{
+run()
}
class SettingsMenuState{
+run()
}

class GameOverState{
+run()
}

ControllerState <|- - MenuState
ControllerState <|- - RankingMenuState
ControllerState <|- - SettingsMenuState
ControllerState <|- - GameOverState

note right of ControllerState: State

note "Concrete State" as N1
N1 -u- SettingsMenuState

note left of Controller : Context

Controller .r.> ControllerState

@enduml

PlantUML version 1.2021.16(Wed Dec 08 17:25:22 GMT 2021)
(GPL source distribution)
Java Runtime: OpenJDK Runtime Environment
JVM: OpenJDK 64-Bit Server VM
Default Encoding: Cp1252
Language: pt
Country: PT
--></g></svg>