<?xml version="1.0" encoding="UTF-8" standalone="no"?><svg xmlns="http://www.w3.org/2000/svg" xmlns:xlink="http://www.w3.org/1999/xlink" contentScriptType="application/ecmascript" contentStyleType="text/css" height="204px" preserveAspectRatio="none" style="width:340px;height:204px;background:#FFFFFF;" version="1.1" viewBox="0 0 340 204" width="340px" zoomAndPan="magnify"><defs><filter height="300%" id="f1euvb9dijgx9y" width="300%" x="-1" y="-1"><feGaussianBlur result="blurOut" stdDeviation="2.0"/><feColorMatrix in="blurOut" result="blurOut2" type="matrix" values="0 0 0 0 0 0 0 0 0 0 0 0 0 0 0 0 0 0 .4 0"/><feOffset dx="4.0" dy="4.0" in="blurOut2" result="blurOut3"/><feBlend in="SourceGraphic" in2="blurOut3" mode="normal"/></filter></defs><g><!--MD5=[d8c6a38f28dd3e2d398a1597135bc87a]
class EnemyMove--><rect codeLine="4" fill="#FEFECE" filter="url(#f1euvb9dijgx9y)" height="61.8359" id="EnemyMove" style="stroke:#A80036;stroke-width:1.5;" width="142" x="95" y="129"/><ellipse cx="128.9" cy="145" fill="#A9DCDF" rx="11" ry="11" style="stroke:#A80036;stroke-width:1.0;"/><path d="M130.65,146.5 L127.3531,146.5 L126.9156,147.5 L126.9156,147.5 L127.3844,147.5 L127.9,148.125 L127.9,148.5 L127.9,148.875 L127.3844,149.5 L126.9156,149.5 L125.025,149.5 L124.4156,149.5 L123.9,148.875 L123.9,148.5 L123.9,148.125 L124.4156,147.5 L125.025,147.5 L127.3375,141.5 L126.4625,141.5 L125.4156,141.5 L124.9,140.875 L124.9,140.5 L124.9,140.125 L125.4156,139.5 L126.4625,139.5 L130.1344,139.5 L132.8219,147.5 L133.3844,147.5 L133.3844,147.5 L133.9,148.125 L133.9,148.5 L133.9,148.875 L133.3844,149.5 L132.8219,149.5 L130.9313,149.5 L130.4156,149.5 L129.9,148.875 L129.9,148.5 L129.9,148.125 L130.4156,147.5 L130.9313,147.5 L130.9313,147.5 L130.65,146.5 Z M130.1031,144.5 L128.9,140.9219 L127.8688,144.5 L130.1031,144.5 Z " fill="#000000"/><text fill="#000000" font-family="sans-serif" font-size="12" font-style="italic" lengthAdjust="spacing" textLength="68" x="147.1" y="149.9102">EnemyMove</text><line style="stroke:#A80036;stroke-width:1.5;" x1="96" x2="236" y1="161" y2="161"/><line style="stroke:#A80036;stroke-width:1.5;" x1="96" x2="236" y1="169" y2="169"/><ellipse cx="106" cy="180" fill="#84BE84" rx="3" ry="3" style="stroke:#038048;stroke-width:1.0;"/><text fill="#000000" font-family="sans-serif" font-size="11" lengthAdjust="spacing" textLength="116" x="115" y="184.4189">MOVE : moveStrategie()</text><!--MD5=[0ec5399c048466d00a31875a1c1775fc]
class Dragon--><rect codeLine="8" fill="#FEFECE" filter="url(#f1euvb9dijgx9y)" height="61.8359" id="Dragon" style="stroke:#A80036;stroke-width:1.5;" width="142" x="7" y="7"/><ellipse cx="53.25" cy="23" fill="#ADD1B2" rx="11" ry="11" style="stroke:#A80036;stroke-width:1.0;"/><path d="M55.25,19.5 Q55.4531,19 55.6875,18.75 Q55.9219,18.5 56.1875,18.5 Q56.6563,18.5 56.9531,18.7813 Q57.25,19.0625 57.25,19.7188 L57.25,21.2813 Q57.25,21.9375 56.9688,22.2188 Q56.6875,22.5 56.25,22.5 Q55.8594,22.5 55.6094,22.3281 Q55.3594,22.1563 55.25,21.7031 Q55.2031,21.3906 55.0313,21.2188 Q54.7188,20.8906 54.1563,20.7031 Q53.5938,20.5 53.0313,20.5 Q52.3281,20.5 51.7344,20.7813 Q51.1563,21.0625 50.7031,21.6875 Q50.25,22.3125 50.25,23.1719 L50.25,24.0938 Q50.25,25.125 51.0938,25.8125 Q51.9375,26.5 53.4375,26.5 Q54.3281,26.5 54.9531,26.2969 Q55.3125,26.1875 55.7188,25.8281 Q55.9844,25.625 56.125,25.5625 Q56.2656,25.5 56.4375,25.5 Q56.7656,25.5 57,25.7656 Q57.25,26.0156 57.25,26.375 Q57.25,26.7188 56.9063,27.125 Q56.4063,27.7188 55.6094,28.0469 Q54.5625,28.5 53.2813,28.5 Q51.7813,28.5 50.5781,27.9063 Q49.6094,27.4375 48.9219,26.4219 Q48.25,25.4063 48.25,24.2031 L48.25,23.1094 Q48.25,21.8594 48.8438,20.7656 Q49.4531,19.6719 50.5,19.0938 Q51.5625,18.5 52.75,18.5 Q53.4688,18.5 54.0938,18.75 Q54.7188,19 55.25,19.5 Z " fill="#000000"/><text fill="#000000" font-family="sans-serif" font-size="12" lengthAdjust="spacing" textLength="41" x="73.75" y="27.9102">Dragon</text><line style="stroke:#A80036;stroke-width:1.5;" x1="8" x2="148" y1="39" y2="39"/><line style="stroke:#A80036;stroke-width:1.5;" x1="8" x2="148" y1="47" y2="47"/><ellipse cx="18" cy="58" fill="#84BE84" rx="3" ry="3" style="stroke:#038048;stroke-width:1.0;"/><text fill="#000000" font-family="sans-serif" font-size="11" lengthAdjust="spacing" textLength="116" x="27" y="62.4189">MOVE : moveStrategie()</text><!--MD5=[24998ffae2356b5bf0d5b2d62def9309]
class Dementor--><rect codeLine="14" fill="#FEFECE" filter="url(#f1euvb9dijgx9y)" height="61.8359" id="Dementor" style="stroke:#A80036;stroke-width:1.5;" width="142" x="184" y="7"/><ellipse cx="223.75" cy="23" fill="#ADD1B2" rx="11" ry="11" style="stroke:#A80036;stroke-width:1.0;"/><path d="M225.75,19.5 Q225.9531,19 226.1875,18.75 Q226.4219,18.5 226.6875,18.5 Q227.1563,18.5 227.4531,18.7813 Q227.75,19.0625 227.75,19.7188 L227.75,21.2813 Q227.75,21.9375 227.4688,22.2188 Q227.1875,22.5 226.75,22.5 Q226.3594,22.5 226.1094,22.3281 Q225.8594,22.1563 225.75,21.7031 Q225.7031,21.3906 225.5313,21.2188 Q225.2188,20.8906 224.6563,20.7031 Q224.0938,20.5 223.5313,20.5 Q222.8281,20.5 222.2344,20.7813 Q221.6563,21.0625 221.2031,21.6875 Q220.75,22.3125 220.75,23.1719 L220.75,24.0938 Q220.75,25.125 221.5938,25.8125 Q222.4375,26.5 223.9375,26.5 Q224.8281,26.5 225.4531,26.2969 Q225.8125,26.1875 226.2188,25.8281 Q226.4844,25.625 226.625,25.5625 Q226.7656,25.5 226.9375,25.5 Q227.2656,25.5 227.5,25.7656 Q227.75,26.0156 227.75,26.375 Q227.75,26.7188 227.4063,27.125 Q226.9063,27.7188 226.1094,28.0469 Q225.0625,28.5 223.7813,28.5 Q222.2813,28.5 221.0781,27.9063 Q220.1094,27.4375 219.4219,26.4219 Q218.75,25.4063 218.75,24.2031 L218.75,23.1094 Q218.75,21.8594 219.3438,20.7656 Q219.9531,19.6719 221,19.0938 Q222.0625,18.5 223.25,18.5 Q223.9688,18.5 224.5938,18.75 Q225.2188,19 225.75,19.5 Z " fill="#000000"/><text fill="#000000" font-family="sans-serif" font-size="12" lengthAdjust="spacing" textLength="55" x="243.25" y="27.9102">Dementor</text><line style="stroke:#A80036;stroke-width:1.5;" x1="185" x2="325" y1="39" y2="39"/><line style="stroke:#A80036;stroke-width:1.5;" x1="185" x2="325" y1="47" y2="47"/><ellipse cx="195" cy="58" fill="#84BE84" rx="3" ry="3" style="stroke:#038048;stroke-width:1.0;"/><text fill="#000000" font-family="sans-serif" font-size="11" lengthAdjust="spacing" textLength="116" x="204" y="62.4189">MOVE : moveStrategie()</text><!--MD5=[e7e343d04ab4c0c94e3020205c25d38f]
link Dragon to EnemyMove--><path codeLine="12" d="M100.21,69.28 C112.5,86.05 127.84,106.96 140.61,124.38 " fill="none" id="Dragon-to-EnemyMove" style="stroke:#A80036;stroke-width:1.0;"/><polygon fill="#A80036" points="143.8,128.73,141.7152,119.1043,140.8481,124.6944,135.2581,123.8273,143.8,128.73" style="stroke:#A80036;stroke-width:1.0;"/><!--MD5=[adc27f48ae8aba5d2e7190a5254ded35]
link Dementor to EnemyMove--><path codeLine="18" d="M232.54,69.28 C220.1,86.05 204.59,106.96 191.68,124.38 " fill="none" id="Dementor-to-EnemyMove" style="stroke:#A80036;stroke-width:1.0;"/><polygon fill="#A80036" points="188.45,128.73,197.0225,123.8811,191.4272,124.713,190.5953,119.1176,188.45,128.73" style="stroke:#A80036;stroke-width:1.0;"/><!--MD5=[34fa7221e30e738856c4cd6afb4fd580]
@startuml
'https://plantuml.com/component-diagram


abstract class EnemyMove{
+ MOVE : moveStrategie()
}

class Dragon{
+ MOVE : moveStrategie()
}

Dragon - -> EnemyMove

class Dementor{
+ MOVE : moveStrategie()
}

Dementor - -> EnemyMove


@enduml

@startuml


abstract class EnemyMove{
+ MOVE : moveStrategie()
}

class Dragon{
+ MOVE : moveStrategie()
}

Dragon - -> EnemyMove

class Dementor{
+ MOVE : moveStrategie()
}

Dementor - -> EnemyMove


@enduml

PlantUML version 1.2022.0(Tue Jan 11 16:16:42 GMT 2022)
(GPL source distribution)
Java Runtime: OpenJDK Runtime Environment
JVM: OpenJDK 64-Bit Server VM
Default Encoding: Cp1252
Language: en
Country: GB
--></g></svg>